<?xml version="1.0" standalone="no"?>
<!DOCTYPE svg PUBLIC "-//W3C//DTD SVG 1.1//EN" "http://www.w3.org/Graphics/SVG/1.1/DTD/svg11.dtd" >
<svg xmlns="http://www.w3.org/2000/svg" xmlns:xlink="http://www.w3.org/1999/xlink" version="1.1">
<metadata></metadata>
<defs>
<font id="jurasemibold" horiz-adv-x="1273" >
<font-face units-per-em="2048" ascent="1638" descent="-410" />
<missing-glyph horiz-adv-x="593" />
<glyph unicode="&#xfb01;" horiz-adv-x="1224" d="M82 938q0 35 19.5 54.5t54.5 19.5h80v39q0 197 93 290t289 93h355q41 0 62.5 -21.5t21.5 -62.5v-58q0 -41 -22.5 -64.5t-61.5 -23.5h-53q-31 0 -52 13l-250 69q-133 0 -184 -50t-51 -185v-39h567q35 0 54.5 -19.5t19.5 -54.5q0 -14 -2 -20v-844q0 -35 -19.5 -54.5 t-54.5 -19.5t-54.5 19.5t-19.5 54.5v790h-491v-790q0 -35 -19.5 -54.5t-54.5 -19.5t-54 19.5t-19 54.5v790h-80q-35 0 -54.5 19.5t-19.5 54.5z" />
<glyph unicode="&#xfb02;" horiz-adv-x="1329" d="M82 938q0 35 19.5 54.5t54.5 19.5h80v39q0 197 93 290t289 93h330q35 0 54.5 -19.5t19.5 -54.5v-1061q0 -90 30.5 -121t121.5 -31q38 0 55.5 -17t17.5 -56q0 -35 -19.5 -54.5t-53.5 -19.5q-152 0 -226 73.5t-74 225.5v987h-256q-92 0 -142 -21.5t-71.5 -71.5t-21.5 -142 v-39h225q35 0 54.5 -19.5t19.5 -54.5t-19.5 -54.5t-54.5 -19.5h-225v-790q0 -35 -19.5 -54.5t-54.5 -19.5t-54 19.5t-19 54.5v790h-80q-35 0 -54.5 19.5t-19.5 54.5z" />
<glyph horiz-adv-x="0" />
<glyph unicode="&#xd;" horiz-adv-x="593" />
<glyph horiz-adv-x="0" />
<glyph horiz-adv-x="0" />
<glyph unicode=" "  horiz-adv-x="593" />
<glyph unicode="&#x09;" horiz-adv-x="593" />
<glyph unicode="&#xa0;" horiz-adv-x="593" />
<glyph unicode="!" horiz-adv-x="516" d="M164 74v47q0 72 74 72h45q70 0 69 -72v-47q0 -35 -18.5 -54.5t-50.5 -19.5h-45q-35 0 -54.5 19.5t-19.5 54.5zM186 352v1010q0 74 74 74t74 -74v-1010q0 -74 -74 -73q-74 -1 -74 73z" />
<glyph unicode="&#x22;" horiz-adv-x="741" d="M164 991v418q0 27 18.5 45.5t44.5 18.5q27 0 45.5 -18.5t18.5 -45.5v-418q0 -27 -18.5 -45t-45.5 -18q-26 0 -44.5 18.5t-18.5 44.5zM451 991v418q0 27 18.5 45.5t44.5 18.5q27 0 45.5 -18.5t18.5 -45.5v-418q0 -27 -18.5 -45t-45.5 -18q-26 0 -44.5 18.5t-18.5 44.5z " />
<glyph unicode="#" horiz-adv-x="1239" d="M82 477q0 27 18.5 45.5t44.5 18.5h177l79 282h-141q-27 0 -45 18.5t-18 45.5t18 45t45 18h176l101 363q4 20 22.5 33.5t38.5 13.5q27 0 45.5 -18.5t18.5 -45.5q0 -12 -3 -18l-92 -328h238l100 363q4 20 22.5 33.5t39.5 13.5q27 0 45 -18.5t18 -45.5q0 -12 -2 -18 l-92 -328h199q27 0 45 -18.5t18 -44.5q0 -27 -18.5 -45.5t-44.5 -18.5h-234l-78 -282h197q27 0 45 -18.5t18 -45.5t-18 -45t-45 -18h-234l-106 -385q-4 -20 -22.5 -33.5t-39.5 -13.5q-27 0 -45 18t-18 45q0 12 2 18l98 351h-237l-107 -385q-4 -20 -22.5 -33.5t-38.5 -13.5 q-27 0 -45.5 18t-18.5 45q0 12 2 18l99 351h-142q-27 0 -45 18.5t-18 44.5zM455 541h235l80 282h-238z" />
<glyph unicode="$" horiz-adv-x="1351" d="M164 371q0 31 21.5 52t52.5 21t52 -21.5t21 -51.5q0 -88 20.5 -135.5t69 -68t134.5 -20.5h79v447h-49q-180 0 -267 86t-87 266t86 266t266 86h62v144q0 63 63 63t64 -63v-144h59q180 0 266 -86t86 -264q0 -31 -21.5 -52.5t-51.5 -21.5q-31 0 -52.5 22t-21.5 52 q0 117 -43 160t-162 43h-59v-410h65q189 0 280 -91t91 -279t-91 -279.5t-280 -91.5h-76v-117q0 -63 -63 -63t-64 63v117h-79q-190 0 -280.5 91t-90.5 280zM358 946q0 -119 44 -162t163 -43h60v410h-62q-119 0 -162 -43t-43 -162zM741 147h76q86 0 134 20.5t68.5 68 t20.5 135.5t-20.5 135t-68.5 67.5t-134 20.5h-76v-447z" />
<glyph unicode="%" horiz-adv-x="1703" d="M123 926v153q0 143 69.5 213t213.5 70h32q143 0 213 -69.5t70 -213.5v-151q0 -143 -69.5 -214t-213.5 -71h-32q-144 0 -213.5 69.5t-69.5 213.5zM262 926q0 -84 30 -114t114 -30h32q84 0 114 30t30 116v151q0 84 -30 114t-114 30h-32q-84 0 -114 -29t-30 -115v-153z M301 45q0 25 14 45l945 1249q25 31 59 31q31 0 52.5 -21.5t21.5 -52.5q0 -23 -15 -45l-944 -1249q-25 -31 -59 -31q-31 0 -52.5 21.5t-21.5 52.5zM983 283v153q0 143 69.5 213t213.5 70h32q143 0 213 -69.5t70 -213.5v-151q0 -143 -69.5 -214t-213.5 -71h-32 q-144 0 -213.5 69.5t-69.5 213.5zM1122 283q0 -84 30 -114t114 -30h32q84 0 114 30t30 116v151q0 84 -30 114t-114 30h-32q-84 0 -114 -29t-30 -115v-153z" />
<glyph unicode="&#x26;" horiz-adv-x="1302" d="M123 414q0 154 47 251t145 144q-27 43 -38 88t-11 102q0 166 80 247t246 81h51q145 0 224 -60.5t98 -187.5q4 -37 -15.5 -57.5t-56.5 -20.5q-35 0 -52.5 17.5t-25.5 54.5q-10 61 -49 84t-123 23h-51q-102 0 -140 -37t-38 -144q0 -66 25.5 -108.5t107.5 -116.5l383 -340 v64q0 35 19.5 54t54.5 19t54 -19.5t19 -53.5v-84q0 -55 -6 -105l162 -143q29 -22 29 -53q0 -29 -23 -52q-25 -29 -53 -28q-25 0 -51 22l-111 99q-49 -94 -145.5 -139.5t-245.5 -45.5h-66q-229 0 -336.5 107.5t-107.5 337.5zM270 414q0 -115 28 -178.5t91.5 -91t177.5 -27.5 h66q121 0 185.5 31.5t90.5 107.5l-460 408l-35 30l-25 -12q-63 -29 -91 -91.5t-28 -176.5z" />
<glyph unicode="'" horiz-adv-x="454" d="M164 991v418q0 27 18.5 45.5t44.5 18.5q27 0 45.5 -18.5t18.5 -45.5v-418q0 -27 -18.5 -45t-45.5 -18q-26 0 -44.5 18.5t-18.5 44.5z" />
<glyph unicode="(" horiz-adv-x="585" d="M123 111v788q0 250 91 365.5t288 115.5q27 0 45 -18.5t18 -44.5q0 -27 -18.5 -45.5t-44.5 -18.5q-94 0 -148.5 -33.5t-79 -109.5t-24.5 -211v-788q0 -127 24.5 -200t79 -103.5t148.5 -30.5q27 0 45 -18.5t18 -45.5t-18.5 -45t-44.5 -18q-197 0 -288 110.5t-91 350.5z" />
<glyph unicode=")" horiz-adv-x="585" d="M20 -287q0 27 18.5 45.5t45.5 18.5q94 0 148.5 30.5t79 103.5t24.5 200v788q0 135 -24.5 211t-79 109.5t-148.5 33.5q-27 0 -45.5 18.5t-18.5 45.5t18.5 45t45.5 18q197 0 288 -115.5t91 -365.5v-788q0 -240 -91 -350.5t-288 -110.5q-27 0 -45.5 18.5t-18.5 44.5z" />
<glyph unicode="*" horiz-adv-x="813" d="M143 899q0 35 35 51l103 60l-103 59q-35 18 -35 51q0 20 11 35q18 33 51 33q18 0 37 -10l100 -58v117q0 63 64 63q63 0 63 -63v-119l102 60q18 10 37 10q31 0 49 -33q12 -18 13 -37q0 -31 -35 -49l-103 -59l103 -60q35 -18 35 -49q0 -18 -13 -37q-18 -33 -49 -33 q-18 0 -37 11l-102 59v-119q0 -63 -63 -63t-64 63v117l-100 -57q-18 -10 -37 -11q-33 0 -51 33q-10 16 -11 35z" />
<glyph unicode="+" horiz-adv-x="1210" d="M164 670q0 63 63 63h318v311q0 63 63 64q63 0 64 -64v-311h311q64 0 64 -63t-64 -64h-311v-317q0 -63 -64 -64q-63 0 -63 64v317h-318q-63 0 -63 64z" />
<glyph unicode="," horiz-adv-x="487" d="M82 -176l53 303q4 66 74 66h45q70 0 70 -72v-47q0 -20 -7 -37l-112 -236q-20 -41 -60 -41q-29 0 -49 16.5t-14 47.5z" />
<glyph unicode="-" horiz-adv-x="1019" d="M164 553q0 27 18.5 45t44.5 18h566q27 0 45 -18t18 -45t-18.5 -45.5t-44.5 -18.5h-566q-26 0 -44.5 18.5t-18.5 45.5z" />
<glyph unicode="." horiz-adv-x="516" d="M164 74v47q0 72 74 72h45q70 0 69 -72v-47q0 -35 -18.5 -54.5t-50.5 -19.5h-45q-35 0 -54.5 19.5t-19.5 54.5z" />
<glyph unicode="/" horiz-adv-x="673" d="M82 -233q0 6 4 26l420 1632q14 57 72 58q35 0 54 -17.5t19 -48.5q0 -18 -4 -28l-418 -1633q-14 -57 -71 -57q-35 0 -55.5 18.5t-20.5 49.5z" />
<glyph unicode="0" horiz-adv-x="1343" d="M164 446v472q0 231 108.5 338.5t337.5 105.5h123q231 0 339 -107.5t108 -339.5v-469q0 -229 -107.5 -337.5t-339.5 -108.5h-123q-229 0 -337.5 108.5t-108.5 337.5zM311 446q0 -115 28 -179t92.5 -92t178.5 -28h123q115 0 179.5 28t92 92.5t27.5 178.5v469 q0 115 -27.5 179.5t-92 92t-179.5 27.5h-123q-115 2 -179 -25.5t-92 -92t-28 -178.5v-472zM580 662v47q0 72 73 71h45q70 0 70 -71v-47q0 -35 -18.5 -54.5t-51.5 -19.5h-45q-35 0 -54 19.5t-19 54.5z" />
<glyph unicode="1" horiz-adv-x="770" d="M123 1014q0 29 27 53l260 258q23 20 43 28.5t49 8.5q30 0 46.5 -19.5t16.5 -54.5v-1214q0 -35 -19.5 -54.5t-53.5 -19.5q-74 0 -74 74v1065l-176 -168q-25 -25 -54 -25q-23 0 -43 21q-23 23 -22 47z" />
<glyph unicode="2" horiz-adv-x="1171" d="M102 1073q18 147 107.5 218t255.5 71h219q188 0 277.5 -89t89.5 -278q0 -109 -52.5 -187.5t-128 -130.5t-225.5 -136q-133 -76 -198.5 -121t-113.5 -111.5t-61 -161.5h699q74 0 73 -73q0 -74 -73 -74h-776q-37 0 -56.5 18.5t-19.5 55.5q0 162 62.5 270.5t150.5 173 t241 150.5q139 80 200 119.5t95.5 89t34.5 118.5q0 127 -46 173t-173 46h-219q-104 0 -153.5 -32.5t-61.5 -112.5q-10 -72 -76 -72q-37 0 -55.5 19.5t-16.5 56.5z" />
<glyph unicode="3" horiz-adv-x="1290" d="M123 309q-2 37 16.5 56.5t55.5 19.5q68 0 75 -74q12 -92 65.5 -128t170.5 -36h233q94 0 145.5 21.5t73 73t21.5 143.5t-21.5 143.5t-72.5 73t-146 21.5h-170q-35 0 -54 19.5t-19 53.5q0 35 19.5 54.5t53.5 19.5h230q80 0 113.5 56.5t33.5 168.5q0 127 -46 173t-173 46 h-199q-106 0 -154 -32.5t-59 -112.5q-12 -72 -77 -72q-37 0 -55.5 19.5t-16.5 56.5q18 147 107 218t255 71h199q188 0 277.5 -89t89.5 -278q0 -197 -121 -274q154 -84 153 -336q0 -199 -94 -292t-293 -93h-233q-178 0 -272.5 76t-110.5 233z" />
<glyph unicode="4" horiz-adv-x="1214" d="M82 362q0 39 31 78l659 877q20 27 43 36t57 9q78 0 78 -74l-2 -852h111q35 0 54.5 -20.5t19.5 -53.5q0 -35 -19.5 -54t-54.5 -19h-113v-215q0 -74 -74 -74q-35 0 -54 19.5t-19 54.5v215h-643q-35 0 -54.5 19.5t-19.5 53.5zM272 434l529 2l2 707z" />
<glyph unicode="5" horiz-adv-x="1310" d="M164 309q-2 37 16.5 56.5t55.5 19.5q68 0 75 -74q12 -92 65.5 -128t170.5 -36h213q94 0 145 23t72.5 74t21.5 143v141q0 92 -22.5 143.5t-73.5 74t-143 22.5h-152q-164 0 -235 -47q-39 -29 -70 -29q-18 0 -29 4l-16 4q-63 18 -63 82v506q0 35 19 54.5t54 19.5h801 q74 0 74 -74t-74 -74h-727v-342q104 43 266 43h152q199 0 293 -94t94 -293v-141q0 -199 -94.5 -293t-292.5 -94h-213q-178 0 -272.5 76t-110.5 233z" />
<glyph unicode="6" horiz-adv-x="1314" d="M164 385v610q0 188 90 277.5t276 89.5h254q166 0 256 -70.5t107 -218.5q4 -37 -15.5 -56.5t-56.5 -19.5q-66 0 -76 72q-12 82 -60 113.5t-155 31.5h-254q-125 0 -172 -46t-47 -173v-192q74 109 240 108h213q199 0 293 -94t94 -293v-137q0 -199 -94 -293t-293 -94h-213 q-199 0 -293 93t-94 292zM311 385q0 -92 21.5 -143.5t73 -73t145.5 -21.5h213q92 0 143 23t74 74t23 143v137q0 92 -23 143.5t-74 74t-143 22.5h-213q-94 0 -145.5 -21.5t-73 -73t-21.5 -143.5v-141z" />
<glyph unicode="7" horiz-adv-x="1044" d="M82 1288q0 35 19.5 54.5t54.5 19.5h733q35 0 54.5 -19.5t19.5 -54.5q0 -215 -62.5 -357.5t-204.5 -246.5q-96 -68 -146 -137.5t-71.5 -178t-25.5 -292.5q0 -37 -19.5 -56.5t-54.5 -19.5t-54.5 19.5t-19.5 56.5q4 209 33 338t92.5 218t179.5 171q100 76 147.5 171 t55.5 240h-657q-35 0 -54.5 19.5t-19.5 54.5z" />
<glyph unicode="8" horiz-adv-x="1335" d="M164 385q0 238 178 326q-135 96 -135 288q0 184 90 273.5t276 89.5h199q186 0 276.5 -89t90.5 -274q0 -199 -140 -292q172 -89 172 -322q0 -199 -94 -292t-293 -93h-233q-199 0 -293 93t-94 292zM311 385q0 -92 21.5 -143.5t73 -73t145.5 -21.5h233q95 0 146 21.5 t72.5 73t21.5 143.5t-21.5 143.5t-72.5 73t-146 21.5h-233q-94 0 -145.5 -21.5t-73 -73t-21.5 -143.5zM354 999q0 -129 44 -179t153 -50h233q121 0 164 54.5t43 174.5q0 123 -47 169t-172 46h-199q-124 0 -171.5 -46t-47.5 -169z" />
<glyph unicode="9" horiz-adv-x="1314" d="M164 838v137q0 199 94 293t293 94h213q199 0 293 -93t94 -292v-610q0 -186 -89 -276.5t-278 -90.5h-254q-166 0 -256 70.5t-106 218.5q-4 37 15.5 56.5t56.5 19.5q66 0 75 -72q12 -82 60.5 -114t154.5 -32h254q127 0 173.5 47.5t46.5 172.5v192q-74 -109 -240 -108h-213 q-199 0 -293 94t-94 293zM311 838q0 -92 22.5 -143.5t74 -74t143.5 -22.5h213q94 0 145.5 21.5t73 72.5t21.5 144v141q0 92 -21.5 143t-73 72.5t-145.5 21.5h-213q-92 0 -143.5 -22.5t-74 -73.5t-22.5 -143v-137z" />
<glyph unicode=":" horiz-adv-x="516" d="M164 74v47q0 72 74 72h45q70 0 69 -72v-47q0 -35 -18.5 -54.5t-50.5 -19.5h-45q-35 0 -54.5 19.5t-19.5 54.5zM164 750v47q0 72 74 72h45q70 0 69 -72v-47q0 -35 -18.5 -54.5t-50.5 -19.5h-45q-35 0 -54.5 19.5t-19.5 54.5z" />
<glyph unicode=";" horiz-adv-x="487" d="M82 -176l53 303q4 66 74 66h45q70 0 70 -72v-47q0 -20 -7 -37l-112 -236q-20 -41 -60 -41q-29 0 -49 16.5t-14 47.5zM135 750v47q0 72 74 72h45q70 0 69 -72v-47q0 -35 -18.5 -54.5t-50.5 -19.5h-45q-35 0 -54.5 19.5t-19.5 54.5z" />
<glyph unicode="&#x3c;" horiz-adv-x="1210" d="M240 674q0 45 45 69l585 326q23 12 39 12q33 0 52 -37q10 -14 10 -36q0 -33 -35 -54l-516 -284l516 -289q35 -20 35 -53q0 -20 -10 -37q-16 -35 -52 -35q-20 0 -39 10l-585 330q-45 25 -45 78z" />
<glyph unicode="=" horiz-adv-x="1210" d="M164 535q0 63 63 63h756q63 0 64 -63q0 -63 -64 -63h-756q-63 0 -63 63zM164 797q0 63 63 63h756q63 0 64 -63q0 -63 -64 -63h-756q-63 0 -63 63z" />
<glyph unicode="&#x3e;" horiz-adv-x="1210" d="M238 328q0 33 34 53l516 289l-516 284q-35 20 -34 54q0 23 10 36q18 37 51 37q16 0 39 -12l586 -326q45 -24 45 -69q0 -53 -45 -78l-586 -330q-18 -10 -39 -10q-33 0 -51 35q-10 16 -10 37z" />
<glyph unicode="?" horiz-adv-x="1032" d="M41 961q0 186 90 276t277 90h137q188 0 277 -89t89 -277q0 -100 -32.5 -168t-75.5 -104t-109 -75q-57 -35 -84.5 -58.5t-44 -61t-16.5 -101.5q0 -74 -74 -74t-74 74q0 100 33 168t76 103.5t108 74.5q57 35 85 58.5t44.5 61.5t16.5 102q0 127 -46 173t-173 46h-137 q-125 0 -172.5 -47.5t-47.5 -171.5q0 -74 -73 -74q-74 0 -74 74zM381 74v47q0 72 74 72h45q70 0 69 -72v-47q0 -35 -18.5 -54.5t-50.5 -19.5h-45q-35 0 -54.5 19.5t-19.5 54.5z" />
<glyph unicode="@" horiz-adv-x="1501" d="M164 307v518q0 172 75.5 251t243.5 77h533q170 0 245.5 -78t75.5 -252v-387q0 -100 -50 -145t-159 -45q-68 0 -108.5 22.5t-63.5 81.5q-41 -61 -100 -84.5t-145 -23.5h-15q-139 0 -205.5 65.5t-66.5 204.5v80q0 143 65.5 209.5t204.5 66.5h84q53 0 89 -14t65 -55 q12 70 53 69q27 0 45.5 -18.5t18.5 -44.5v-369q0 -31 5 -43t20.5 -16t53.5 -4q39 0 55.5 4t21.5 16.5t5 42.5v387q0 82 -16 125t-57 60.5t-121 17.5h-533q-78 2 -118.5 -15.5t-57 -60.5t-16.5 -125v-518q0 -82 16.5 -125t57.5 -60.5t118 -15.5h564q57 0 94 12.5t76 45.5 q18 14 40 14q27 0 45.5 -18.5t18.5 -44.5q0 -31 -23 -49q-53 -45 -114.5 -65.5t-136.5 -20.5h-564q-168 -2 -243.5 76.5t-75.5 250.5zM551 512q0 -86 29.5 -114.5t115.5 -28.5h15q109 0 160 34.5t51 108.5v78q0 63 -11.5 95t-41 44t-91.5 12h-84q-59 0 -89 -12t-42 -43 t-12 -94v-80z" />
<glyph unicode="A" horiz-adv-x="1323" d="M76 70q0 18 8 34l494 1201q25 57 84 57h4q55 0 79 -57l498 -1201q8 -16 8 -34q0 -43 -47 -62q-18 -8 -37 -8q-41 0 -59 47l-121 289h-649l-117 -289q-18 -47 -61 -47q-18 0 -35 8q-49 18 -49 62zM397 483h529l-269 645z" />
<glyph unicode="B" horiz-adv-x="1337" d="M205 74v1214q0 35 19.5 54.5t54.5 19.5h534q158 0 242 -82t84 -238v-55q0 -143 -92 -219q167 -84 167 -328v-67q0 -182 -96 -277.5t-278 -95.5h-561q-35 0 -54.5 19.5t-19.5 54.5zM352 147h488q121 0 174 52.5t53 173.5v67q0 121 -52 172.5t-175 51.5h-488v-517zM352 811 h488h12h4q70 0 102.5 47t32.5 129v55q0 94 -41 133t-137 39h-461v-403z" />
<glyph unicode="C" horiz-adv-x="1400" d="M164 446v469q0 231 108 340q106 107 328 107h8h248q190 0 288.5 -79t112.5 -251q4 -37 -15 -56.5t-56 -19.5q-66 0 -76 74q-10 104 -66.5 144t-187.5 40h-248h-15q-102 0 -162 -26q-64 -28 -92 -93t-28 -180v-469q0 -115 28 -179t92.5 -92t178.5 -28h246q131 0 187.5 40 t66.5 145q10 74 76 74q37 0 56.5 -19.5t14.5 -56.5q-14 -172 -112 -251t-289 -79h-246q-229 0 -337.5 108.5t-108.5 337.5z" />
<glyph unicode="D" horiz-adv-x="1443" d="M205 74v1214q0 35 19.5 54.5t54.5 19.5h493q262 0 385 -123t123 -385v-346q0 -262 -123 -385t-385 -123h-493q-35 0 -54.5 19.5t-19.5 54.5zM352 147h420q135 0 213 35t113 113t35 213v346q0 135 -35 213t-113 112.5t-213 34.5h-420v-1067z" />
<glyph unicode="E" horiz-adv-x="1202" d="M205 74v1214q0 35 19.5 54.5t54.5 19.5h747q35 0 54.5 -19.5t19.5 -54.5t-19.5 -54.5t-54.5 -19.5h-674v-452h432q35 0 54.5 -19.5t19.5 -54.5t-19.5 -54.5t-54.5 -19.5h-432v-467h674q35 0 54.5 -19t19.5 -54t-19.5 -54.5t-54.5 -19.5h-747q-35 0 -54.5 19.5t-19.5 54.5 z" />
<glyph unicode="F" horiz-adv-x="1099" d="M205 74v1214q0 35 19.5 54.5t54.5 19.5h747q35 0 54.5 -19.5t19.5 -54.5t-19.5 -54.5t-54.5 -19.5h-674v-452h432q35 0 54.5 -19.5t19.5 -54.5t-19.5 -54.5t-54.5 -19.5h-432v-540q0 -35 -19.5 -54.5t-53.5 -19.5q-35 0 -54.5 19.5t-19.5 54.5z" />
<glyph unicode="G" horiz-adv-x="1404" d="M164 446v469q0 231 108 340q105 107 328 107h8h248q190 0 288.5 -79t112.5 -251q4 -37 -15 -56.5t-56 -19.5q-66 0 -76 74q-10 104 -66.5 144t-187.5 40h-248h-15q-102 0 -162 -26q-64 -27 -92 -92.5t-28 -180.5v-469q0 -115 28 -179t92.5 -92t178.5 -28h246 q102 0 156.5 23t78 78t23.5 158v108l-184 2q-74 0 -74 74q0 35 19.5 54.5t54.5 19.5l258 -2q35 0 54.5 -19.5t19.5 -54.5v-182q0 -211 -97.5 -308.5t-308.5 -97.5h-246q-229 0 -337.5 108.5t-108.5 337.5z" />
<glyph unicode="H" horiz-adv-x="1548" d="M205 74v1214q0 31 21.5 52.5t52.5 21.5t52 -21.5t21 -52.5v-524h844v524q0 31 21.5 52.5t52.5 21.5t52 -21.5t21 -52.5v-1214q0 -31 -21.5 -52.5t-51.5 -21.5q-31 0 -52.5 21.5t-21.5 52.5v542h-844v-542q0 -31 -21.5 -52.5t-51.5 -21.5q-31 0 -52.5 21.5t-21.5 52.5z " />
<glyph unicode="I" horiz-adv-x="557" d="M205 74v1214q0 74 74 74t73 -74v-1214q0 -74 -73 -74q-74 0 -74 74z" />
<glyph unicode="J" horiz-adv-x="1191" d="M61 330q-2 37 16.5 56.5t55.5 19.5q70 0 76 -74q12 -104 68.5 -144.5t187.5 -40.5h137q102 0 156.5 23t78 78t23.5 158v882q0 74 74 74q35 0 54.5 -19.5t19.5 -54.5v-882q0 -211 -97.5 -308.5t-308.5 -97.5h-137q-193 0 -290 79t-114 251z" />
<glyph unicode="K" horiz-adv-x="1173" d="M205 74v1214q0 35 19.5 54.5t54.5 19.5t54 -19.5t19 -54.5v-524l555 571q25 27 54 27q27 0 51 -25q25 -25 24 -53q0 -27 -24 -51l-443 -459l523 -649q20 -22 20 -49q0 -31 -31 -56q-23 -20 -49 -20q-31 0 -55 33l-512 635l-113 -117v-477q0 -35 -19.5 -54.5t-53.5 -19.5 q-35 0 -54.5 19.5t-19.5 54.5z" />
<glyph unicode="L" horiz-adv-x="1075" d="M205 74v1214q0 74 74 74t73 -74v-1141h588q74 0 74 -73q0 -74 -74 -74h-661q-74 0 -74 74z" />
<glyph unicode="M" horiz-adv-x="1673" d="M205 74v1214q0 35 19.5 54.5t54.5 19.5q49 0 81 -47l480 -725l477 725q33 47 90 47q61 0 61 -74v-1214q0 -35 -19 -54.5t-54 -19.5t-54.5 19.5t-19.5 54.5v983l-401 -598q-33 -47 -91 -47q-41 0 -73 47l-404 602v-987q0 -35 -19.5 -54.5t-53.5 -19.5q-35 0 -54.5 19.5 t-19.5 54.5z" />
<glyph unicode="N" horiz-adv-x="1509" d="M205 74v1214q0 35 19.5 54.5t54.5 19.5q43 0 73 -43l805 -1034v1003q0 35 19.5 54.5t54.5 19.5t54.5 -19.5t19.5 -54.5v-1214q0 -35 -19.5 -54.5t-54.5 -19.5q-20 0 -37.5 10t-36.5 33l-805 1036v-1005q0 -35 -19.5 -54.5t-53.5 -19.5q-35 0 -54.5 19.5t-19.5 54.5z" />
<glyph unicode="O" horiz-adv-x="1466" d="M164 446v472q0 230 108 338q107 106 330 106h8h246q231 0 339 -107.5t108 -339.5v-469q0 -229 -108 -337.5t-339 -108.5h-246q-229 0 -337.5 108.5t-108.5 337.5zM311 446q0 -115 28 -179t92.5 -92t178.5 -28h246q115 0 179.5 28t92 92.5t27.5 178.5v469 q0 115 -27.5 179.5t-92 92t-179.5 27.5h-246h-15q-104 0 -164 -26q-64 -28 -92 -92t-28 -178v-472z" />
<glyph unicode="P" horiz-adv-x="1214" d="M205 74v1214q0 35 19.5 54.5t54.5 19.5h479q182 0 278.5 -96.5t96.5 -278.5v-61q0 -182 -96.5 -278.5t-278.5 -96.5h-406v-477q0 -35 -19.5 -54.5t-53.5 -19.5q-35 0 -54.5 19.5t-19.5 54.5zM352 698h406q121 0 174 53.5t53 174.5v61q0 121 -53 174t-174 53h-406v-516z " />
<glyph unicode="Q" horiz-adv-x="1474" d="M164 446v472q0 231 108 338q107 106 330 106h8h246q231 0 339 -107.5t108 -339.5v-469q0 -250 -127 -356l114 -121q21 -25 21 -43q0 -27 -25 -47t-43 -20q-20 0 -47 22l-139 146q-82 -27 -201 -27h-246q-229 0 -337.5 108.5t-108.5 337.5zM311 446q0 -115 28 -179 t92.5 -92t178.5 -28h246q33 1 82 5l-66 67q-20 25 -20 45q0 23 22 45q20 20 46 21q20 0 47 -23l106 -110q43 33 62.5 93t19.5 156v469q0 115 -27.5 179.5t-92 92t-179.5 27.5h-246h-15q-104 0 -164 -26q-64 -27 -92 -91.5t-28 -178.5v-472z" />
<glyph unicode="R" horiz-adv-x="1255" d="M205 74v1214q0 35 19.5 54.5t54.5 19.5h479q182 0 278.5 -96.5t96.5 -278.5v-61q0 -160 -74 -253t-215 -116l280 -461q13 -21 13 -39q0 -35 -39 -61q-20 -12 -41 -12q-35 0 -60 36l-321 527l-2 4h-322v-477q0 -35 -19.5 -54.5t-53.5 -19.5q-35 0 -54.5 19.5t-19.5 54.5z M352 698h406q121 0 174 53.5t53 174.5v61q0 121 -53 174t-174 53h-406v-516z" />
<glyph unicode="S" horiz-adv-x="1392" d="M164 309q-2 37 16.5 56.5t55.5 19.5q68 0 75 -74q12 -92 65.5 -128t170.5 -36h295q94 0 145 21.5t72.5 73t21.5 143.5q0 94 -22.5 145.5t-73.5 74t-143 22.5h-264q-186 0 -277.5 91t-91.5 277q0 188 90 277.5t276 89.5h261q168 0 257 -70.5t105 -218.5q4 -37 -15.5 -56.5 t-56.5 -19.5q-35 0 -52 17.5t-23 54.5q-10 80 -59.5 112.5t-155.5 32.5h-261q-125 0 -172 -46t-47 -173q0 -125 48.5 -173t173.5 -48h264q199 0 293 -95t94 -294t-94.5 -292t-292.5 -93h-295q-178 0 -272.5 76t-110.5 233z" />
<glyph unicode="T" horiz-adv-x="1220" d="M51 1288q0 35 19.5 54.5t54.5 19.5h971q35 0 54 -19.5t19 -54.5t-19.5 -54.5t-53.5 -19.5h-412v-1140q0 -35 -19.5 -54.5t-54.5 -19.5t-54 19.5t-19 54.5v1140h-412q-35 0 -54.5 19.5t-19.5 54.5z" />
<glyph unicode="U" horiz-adv-x="1507" d="M184 446v842q0 35 19.5 54.5t54.5 19.5t54.5 -19.5t19.5 -54.5v-842q0 -115 27.5 -179t92 -92t179.5 -28h246q115 0 179 28t92 92.5t28 178.5v842q0 35 19 54.5t54 19.5t54.5 -19.5t19.5 -54.5v-842q0 -229 -107.5 -337.5t-338.5 -108.5h-246q-230 0 -338.5 108.5 t-108.5 337.5z" />
<glyph unicode="V" horiz-adv-x="1290" d="M41 1294q0 41 47 60q16 8 37 8q41 0 59 -47l465 -1082l457 1082q18 47 59 47q18 0 37 -8q47 -18 47 -62q0 -18 -8 -35l-518 -1202q-27 -55 -78 -55h-8q-47 0 -72 55l-516 1202q-8 16 -8 37z" />
<glyph unicode="W" horiz-adv-x="1808" d="M41 1294q0 43 53 62q18 6 31 6q43 0 61 -53l326 -1022l309 1013q18 61 84 62h2q61 0 80 -62l309 -1013l326 1022q16 53 59 53q14 0 33 -6q51 -15 51 -64q0 -18 -4 -28l-385 -1203q-23 -61 -76 -61h-6q-57 0 -75 61l-320 1029l-319 -1029q-12 -33 -27.5 -47t-48.5 -14h-4 q-27 0 -43.5 14.5t-24.5 46.5l-385 1203q-6 16 -6 30z" />
<glyph unicode="X" horiz-adv-x="1243" d="M113 1288q0 33 34 58q27 16 46 16q33 0 57 -35l368 -516l375 516q25 35 56 35q23 0 47 -19q34 -24 34 -53q0 -25 -18 -49l-403 -557l401 -563q16 -27 16 -45q0 -35 -34 -60q-27 -16 -45 -16q-33 0 -58 35l-377 528l-358 -528q-25 -35 -55 -35q-20 0 -47 16q-35 25 -35 58 q0 18 16 45l389 571l-393 553q-16 27 -16 45z" />
<glyph unicode="Y" horiz-adv-x="1202" d="M41 1288q0 35 37 60q23 14 45 14q37 0 57 -37l414 -661l428 661q20 37 55 37q23 0 45 -16q39 -23 39 -58q0 -20 -16 -43l-477 -739v-432q0 -35 -19.5 -54.5t-54.5 -19.5t-54.5 19.5t-19.5 54.5v432l-465 739q-14 23 -14 43z" />
<glyph unicode="Z" horiz-adv-x="1355" d="M102 1116q20 121 100.5 183.5t217.5 62.5h682q74 0 74 -74q0 -31 -29 -71l-813 -1070h600q78 0 118 25t52 82q8 35 25.5 52.5t52.5 17.5q37 0 56 -20.5t15 -57.5q-20 -121 -101 -183.5t-218 -62.5h-735q-35 0 -54.5 19.5t-19.5 54.5q0 25 31 67l815 1073h-551 q-76 0 -116 -24.5t-52 -81.5q-8 -35 -25.5 -52.5t-52.5 -17.5q-37 0 -57.5 20.5t-14.5 57.5z" />
<glyph unicode="[" horiz-adv-x="442" d="M123 -287v1604q0 63 63 63h172q27 0 45.5 -18.5t18.5 -44.5q0 -27 -18.5 -45.5t-45.5 -18.5h-108v-1476h108q27 0 45.5 -18.5t18.5 -45.5t-18.5 -45t-45.5 -18h-172q-63 0 -63 63z" />
<glyph unicode="\" horiz-adv-x="673" d="M23 1417q0 31 19 48.5t54 17.5q57 0 72 -58l420 -1632q4 -20 4 -26q0 -31 -20.5 -49.5t-55.5 -18.5q-58 0 -72 57l-417 1633q-4 10 -4 28z" />
<glyph unicode="]" horiz-adv-x="442" d="M20 -287q0 27 18.5 45.5t45.5 18.5h109v1476h-109q-27 0 -45.5 18.5t-18.5 45.5t18.5 45t45.5 18h172q63 0 63 -63v-1604q0 -63 -63 -63h-172q-27 0 -45.5 18.5t-18.5 44.5z" />
<glyph unicode="^" horiz-adv-x="843" d="M164 899q0 8 4 25l162 417q23 49 73 50h37q53 0 74 -50l162 -417q4 -16 4 -25q0 -27 -18.5 -45t-45.5 -18q-20 0 -36.5 12t-22.5 29l-135 348l-135 -348q-6 -16 -22.5 -28.5t-37.5 -12.5q-26 0 -44.5 18t-18.5 45z" />
<glyph unicode="_" horiz-adv-x="931" d="M102 -74q0 74 74 74h518q74 0 74 -74t-74 -74h-518q-74 0 -74 74z" />
<glyph unicode="`" horiz-adv-x="501" d="M102 1315q0 27 27 47q23 18 45 18q27 0 47 -26l160 -191q18 -20 18 -45q0 -27 -26 -47q-20 -18 -45 -18q-27 0 -47 26l-160 191q-18 23 -19 45z" />
<glyph unicode="a" horiz-adv-x="1269" d="M164 328q0 168 80 247.5t248 79.5h446q-6 119 -59.5 164t-182.5 45h-118q-115 0 -168.5 -19.5t-71.5 -66.5q-14 -37 -30.5 -51t-49.5 -14t-53.5 16t-20.5 43q0 10 2 16q25 115 120 169.5t272 54.5h118q201 0 295 -94.5t94 -294.5v-549q0 -35 -19 -54.5t-54 -19.5 t-54.5 19.5t-19.5 54.5v65q-109 -139 -332 -139h-114q-168 0 -248 80t-80 248zM311 328q0 -106 37 -143.5t144 -37.5h114q281 0 324 166q4 17 8 25v170h-446q-106 0 -143.5 -37t-37.5 -143z" />
<glyph unicode="b" horiz-adv-x="1314" d="M205 74v1286q0 35 19.5 54.5t54.5 19.5t54 -19.5t19 -54.5v-467q102 119 332 119h78q201 0 295 -94.5t94 -294.5v-234q0 -199 -94 -294t-295 -95h-78q-229 0 -332 119v-45q0 -35 -19.5 -54.5t-53.5 -19.5q-35 0 -54.5 19.5t-19.5 54.5zM352 313q0 -82 90 -124t242 -42h78 q94 0 145 23t74 74t23 145v234q0 94 -23 145t-74 73.5t-145 22.5h-78q-152 0 -242 -42t-90 -124v-385z" />
<glyph unicode="c" horiz-adv-x="1187" d="M164 389v236q0 201 95 295q93 92 286 92h8h168q152 0 236.5 -51.5t105.5 -157.5q6 -37 -14.5 -57.5t-59.5 -20.5q-31 0 -47 16.5t-29 51.5q-14 39 -58 55t-134 16h-168h-15q-82 0 -130 -20q-52 -22 -74.5 -73.5t-22.5 -145.5v-236q0 -94 22.5 -145t74 -74t145.5 -23h168 q90 0 134 16.5t58 55.5q12 35 28.5 51.5t49.5 16.5q37 0 57.5 -20.5t14.5 -57.5q-20 -106 -105.5 -157.5t-236.5 -51.5h-168q-199 0 -294 95t-95 294z" />
<glyph unicode="d" horiz-adv-x="1294" d="M164 389v234q0 201 95 295t294 94h410v348q0 35 19 54.5t54 19.5t54.5 -19.5t19.5 -54.5v-1286q0 -35 -19.5 -54.5t-54.5 -19.5t-54 19.5t-19 54.5v39q-96 -113 -332 -113h-78q-199 0 -294 95t-95 294zM311 389q0 -94 22.5 -145t74 -74t145.5 -23h78q151 0 241.5 42 t90.5 124v551h-410q-94 0 -145.5 -22.5t-74 -73.5t-22.5 -145v-234z" />
<glyph unicode="e" d="M164 387v236q0 201 95 296q93 93 286 93h8h168q201 0 295 -94.5t94 -294.5v-103q0 -35 -19.5 -54.5t-54.5 -19.5h-725v-59q0 -92 22.5 -143t74 -74t145.5 -23h168q115 0 168 25t67 86q8 35 25.5 52.5t52.5 17.5q37 0 56.5 -19.5t13.5 -56.5q-20 -129 -114.5 -190.5 t-268.5 -61.5h-168q-199 0 -294 94t-95 293zM311 594h652v29q0 94 -22.5 145t-74 73.5t-145.5 22.5h-168h-15q-82 0 -130 -20q-52 -22 -74.5 -74.5t-22.5 -146.5v-29z" />
<glyph unicode="f" horiz-adv-x="745" d="M82 938q0 74 74 74h80v39q0 197 93 290t289 93q66 0 66 -74q0 -35 -17.5 -54.5t-48.5 -19.5q-133 0 -184 -50t-51 -185v-39h227q74 0 74 -74q0 -35 -19.5 -54.5t-54.5 -19.5h-227v-790q0 -35 -19.5 -54.5t-54.5 -19.5t-54 19.5t-19 54.5v790h-80q-35 0 -54.5 19.5 t-19.5 54.5z" />
<glyph unicode="g" horiz-adv-x="1294" d="M164 387v236q0 201 95 296q93 93 286 93h8h168q162 0 242 -94v20q0 35 19 54.5t54 19.5t54.5 -19.5t19.5 -54.5v-1065q0 -145 -68.5 -214t-214.5 -69h-381q-123 0 -191.5 50.5t-84.5 154.5q-6 37 13.5 57.5t58.5 20.5q33 0 48 -16.5t27 -55.5q10 -37 39 -50t90 -13h381 q82 0 109 26.5t27 108.5v258q-106 -131 -332 -131h-78q-199 0 -294 94t-95 293zM311 387q0 -92 22.5 -143t74 -74t145.5 -23h78q151 0 241.5 42t90.5 124v383q0 92 -59.5 130t-182.5 38h-168h-15q-83 0 -130 -20q-52 -23 -74.5 -75t-22.5 -146v-236z" />
<glyph unicode="h" horiz-adv-x="1314" d="M205 74v1286q0 35 19.5 54.5t54.5 19.5t54 -19.5t19 -54.5v-430q123 82 332 82h57q201 0 295 -94.5t94 -294.5v-549q0 -35 -19 -54.5t-54 -19.5t-54.5 19.5t-19.5 54.5v549q0 94 -22.5 145t-73.5 73.5t-146 22.5h-57q-145 0 -224 -41t-100 -125q-4 -16 -8 -22v-602 q0 -35 -19.5 -54.5t-53.5 -19.5q-35 0 -54.5 19.5t-19.5 54.5z" />
<glyph unicode="i" horiz-adv-x="557" d="M164 1274v57q0 84 88 84h54q41 0 62.5 -21.5t21.5 -62.5v-57q0 -41 -22.5 -64.5t-61.5 -23.5h-54q-43 0 -65.5 23.5t-22.5 64.5zM205 74v864q0 35 19.5 54.5t54.5 19.5t54 -19.5t19 -54.5v-864q0 -35 -19.5 -54.5t-53.5 -19.5q-35 0 -54.5 19.5t-19.5 54.5z" />
<glyph unicode="j" horiz-adv-x="557" d="M-1 -281.5q19 19.5 54 19.5q90 0 121 30.5t31 120.5v1049q0 35 19.5 54.5t54.5 19.5t54 -19.5t19 -54.5v-1049q0 -152 -73.5 -225.5t-225.5 -73.5q-73 0 -73 72q0 37 19 56.5zM166 1274v57q0 84 88 84h54q41 0 62.5 -21.5t21.5 -62.5v-57q0 -41 -22.5 -64.5t-61.5 -23.5 h-54q-43 0 -65.5 23.5t-22.5 64.5z" />
<glyph unicode="k" horiz-adv-x="1017" d="M205 74v1286q0 35 19.5 54.5t54.5 19.5t54 -19.5t19 -54.5v-799l500 428q27 23 49 23q29 0 55 -31q20 -23 21 -47q0 -31 -29 -55l-375 -324l377 -428q23 -23 23 -51q0 -31 -29 -53q-27 -23 -49 -23q-27 0 -55 29l-379 430l-109 -94v-291q0 -35 -19.5 -54.5t-53.5 -19.5 q-35 0 -54.5 19.5t-19.5 54.5z" />
<glyph unicode="l" horiz-adv-x="661" d="M205 299v1061q0 35 19.5 54.5t54.5 19.5t54 -19.5t19 -54.5v-1061q0 -88 32 -120t120 -32q37 0 56.5 -19t19.5 -54t-19.5 -54.5t-56.5 -19.5q-152 0 -225.5 73.5t-73.5 225.5z" />
<glyph unicode="m" horiz-adv-x="1847" d="M205 74v864q0 74 74 74t73 -74v-59q51 70 114.5 101.5t156.5 31.5h43q121 0 190.5 -36t108.5 -118q49 82 111.5 118t160.5 36h84q182 0 262 -88t80 -293v-557q0 -74 -74 -74t-73 74v557q0 125 -45.5 179t-149.5 54h-84q-123 0 -176 -54t-53 -179v-557q0 -74 -74 -74 t-74 74v557q0 125 -45 179t-149 54h-84q-123 0 -176.5 -54t-53.5 -179v-557q0 -74 -73 -74q-74 0 -74 74z" />
<glyph unicode="n" horiz-adv-x="1314" d="M205 74v864q0 35 19.5 54.5t54.5 19.5t54 -19.5t19 -54.5v-57q106 131 332 131h57q201 0 295 -94.5t94 -294.5v-549q0 -35 -19 -54.5t-54 -19.5t-54.5 19.5t-19.5 54.5v549q0 94 -22.5 145t-73.5 73.5t-146 22.5h-57q-152 0 -242 -42t-90 -124v-624q0 -35 -19.5 -54.5 t-53.5 -19.5q-35 0 -54.5 19.5t-19.5 54.5z" />
<glyph unicode="o" d="M164 387v236q0 201 94 295t295 94h168q201 0 295 -94.5t94 -294.5v-234q0 -199 -94 -294t-295 -95h-168q-199 0 -294 94t-95 293zM311 387q0 -92 22.5 -143t74 -74t145.5 -23h168q94 0 145.5 23t74 74t22.5 145v234q0 94 -22.5 145t-74 73.5t-145.5 22.5h-168 q-94 0 -145.5 -21.5t-74 -73.5t-22.5 -146v-236z" />
<glyph unicode="p" horiz-adv-x="1314" d="M205 -336v1274q0 35 19.5 54.5t54.5 19.5t54 -19.5t19 -54.5v-47q104 121 332 121h78q201 0 295 -94.5t94 -294.5v-234q0 -199 -94 -294t-295 -95h-410v-336q0 -35 -19.5 -54.5t-53.5 -19.5q-35 0 -54.5 19.5t-19.5 54.5zM352 147h410q94 0 145 23t74 74t23 145v234 q0 94 -23 145t-74 73.5t-145 22.5h-78q-152 0 -242 -42t-90 -124v-551z" />
<glyph unicode="q" horiz-adv-x="1294" d="M164 389v234q0 201 95 295t294 94h78q240 0 332 -125v51q0 35 19 54.5t54 19.5t54.5 -19.5t19.5 -54.5v-1274q0 -35 -19.5 -54.5t-54.5 -19.5t-54 19.5t-19 54.5v336h-410q-199 0 -294 95t-95 294zM311 389q0 -94 22.5 -145t74 -74t145.5 -23h410v551q0 82 -90.5 124 t-241.5 42h-78q-94 0 -145.5 -22.5t-74 -73.5t-22.5 -145v-234z" />
<glyph unicode="r" horiz-adv-x="835" d="M205 74v864q0 35 19.5 54.5t54.5 19.5t54 -19.5t19 -54.5v-109q59 90 155.5 136.5t223.5 46.5q35 0 54.5 -19.5t19.5 -54.5t-19.5 -54.5t-54.5 -19.5q-184 0 -281.5 -75.5t-97.5 -208.5v-506q0 -35 -19.5 -54.5t-53.5 -19.5q-35 0 -54.5 19.5t-19.5 54.5z" />
<glyph unicode="s" horiz-adv-x="1210" d="M145 217q-6 37 14.5 57.5t57.5 20.5q35 0 52 -17.5t26 -54.5q10 -43 42 -59.5t99 -16.5h336q86 0 117 30t31 118t-31 117.5t-117 29.5h-330q-284 0 -284 283q0 147 70.5 217t213.5 70h320q238 0 274 -203q6 -37 -14.5 -57.5t-56.5 -20.5q-33 0 -50.5 16.5t-27.5 53.5 t-39 50t-86 13h-320q-82 0 -109.5 -26.5t-27.5 -110.5q0 -80 27.5 -108.5t109.5 -28.5h330q150 0 222.5 -73t72.5 -222q0 -150 -72.5 -222.5t-222.5 -72.5h-336q-129 0 -200.5 54.5t-90.5 162.5z" />
<glyph unicode="t" horiz-adv-x="811" d="M61 938q0 35 19.5 54.5t54.5 19.5h109v176q0 74 73 74q74 0 74 -74v-176h244q35 0 54.5 -19.5t19.5 -54.5t-19.5 -54.5t-54.5 -19.5h-244v-483q0 -92 21.5 -142.5t72 -71t142.5 -20.5h2q71 0 71 -73q0 -35 -19 -54.5t-54 -19.5q-197 0 -290 92t-93 289v483h-109 q-35 0 -54.5 19.5t-19.5 54.5z" />
<glyph unicode="u" horiz-adv-x="1314" d="M184 389v549q0 35 19.5 54.5t54.5 19.5t54.5 -19.5t19.5 -54.5v-549q0 -94 22.5 -145t73.5 -74t145 -23h58q152 0 242 42t90 124v625q0 35 19 54.5t54 19.5t54.5 -19.5t19.5 -54.5v-864q0 -35 -19.5 -54.5t-54.5 -19.5t-54 19.5t-19 54.5v57q-106 -131 -332 -131h-58 q-199 0 -294 95t-95 294z" />
<glyph unicode="v" horiz-adv-x="1056" d="M61 944q0 41 48 60q16 8 34 8q43 0 62 -47l311 -732l336 734q18 45 63 45q18 0 35 -8q45 -23 45 -60q0 -14 -10 -39l-387 -850q-27 -55 -86 -55q-57 0 -82 57l-360 850q-8 16 -9 37z" />
<glyph unicode="w" horiz-adv-x="1497" d="M61 942q0 49 52 64q18 6 30 6q45 0 62 -54l237 -702l226 696q18 59 84 60q61 0 79 -62l211 -694l248 705q18 51 62 51q14 0 32 -6q52 -19 52 -62q0 -14 -6 -33l-314 -852q-20 -59 -84 -59q-66 0 -84 61l-209 687l-227 -689q-20 -59 -80 -59q-59 0 -80 59l-286 854 q-4 10 -5 29z" />
<glyph unicode="x" horiz-adv-x="1060" d="M104 76q0 23 19 47l309 418l-268 348q-18 25 -19 47q0 31 33 57q25 18 47 19q31 0 58 -33l256 -332l258 334q25 31 55 31q23 0 47 -19q33 -25 33 -55q0 -23 -19 -47l-282 -365l311 -403q19 -24 19 -49q0 -31 -31 -56q-25 -18 -49 -18q-31 0 -56 33l-299 387l-284 -385 q-25 -35 -58 -35q-20 0 -45 18q-35 25 -35 58z" />
<glyph unicode="y" horiz-adv-x="1335" d="M184 -125q0 74 74 74t74 -74q0 -82 26.5 -109.5t108.5 -27.5h381q82 0 108.5 27.5t26.5 109.5v268q-57 -82 -137 -112.5t-195 -30.5h-84q-197 0 -290 92t-93 289v557q0 74 74 74t74 -74v-557q0 -92 21.5 -142.5t71.5 -71t142 -20.5h84q172 0 252 57.5t80 176.5v557 q0 74 74 74t73 -74v-1063q0 -143 -69.5 -214t-212.5 -71h-381q-143 0 -213 71t-70 214z" />
<glyph unicode="z" horiz-adv-x="1093" d="M94 807q16 104 85 154.5t192 50.5h501q74 0 74 -74q0 -35 -33 -76l-571 -712l401 -3q57 0 86 14.5t41 51.5t28.5 53.5t49.5 16.5q37 0 57.5 -20.5t14.5 -57.5q-20 -100 -90 -152.5t-187 -52.5h-536q-35 0 -54.5 19.5t-19.5 54.5t31 73l575 717h-368q-61 0 -90 -13 t-39 -50t-26 -54.5t-50 -17.5q-39 0 -58.5 20.5t-13.5 57.5z" />
<glyph unicode="{" horiz-adv-x="708" d="M123 473v62q0 53 49 73l115 45v348q0 141 32.5 223.5t105.5 119t200 36.5q27 0 45 -18.5t18 -44.5q0 -27 -18.5 -45.5t-44.5 -18.5q-88 0 -132 -20.5t-61.5 -72.5t-17.5 -159v-380q0 -55 -49 -74l-109 -39v-8l109 -37q49 -14 49 -74v-381q0 -98 16 -146t60.5 -66.5 t134.5 -18.5q27 0 45 -18.5t18 -45.5t-18.5 -45t-44.5 -18q-187 0 -262.5 81t-75.5 277v348l-115 43q-49 23 -49 74z" />
<glyph unicode="|" horiz-adv-x="475" d="M164 -246v1626q0 35 19.5 54.5t54.5 19.5t54 -19.5t19 -54.5v-1626q0 -35 -19.5 -54t-53.5 -19q-35 0 -54.5 19t-19.5 54z" />
<glyph unicode="}" horiz-adv-x="708" d="M20 -287q0 27 18.5 45.5t45.5 18.5q90 0 134 18.5t60.5 66.5t16.5 146v381q0 59 49 74l109 37v8l-109 39q-49 18 -49 74v380q0 106 -17.5 158.5t-61.5 73t-132 20.5q-27 0 -45.5 18.5t-18.5 45.5t18.5 45t45.5 18q127 0 199.5 -36.5t105.5 -118.5t33 -224v-348l115 -45 q49 -20 49 -73v-62q0 -51 -49 -74l-115 -43v-348q0 -197 -76 -277.5t-262 -80.5q-27 0 -45.5 18.5t-18.5 44.5z" />
<glyph unicode="~" horiz-adv-x="1210" d="M170 600q0 20 14 37q72 84 121 112.5t121 28.5q63 0 109.5 -17.5t103.5 -51.5q45 -27 74.5 -39.5t64.5 -12.5q43 0 75 20.5t81 78.5q18 23 47 22q25 0 41 -17.5t16 -41.5q0 -18 -12 -37q-59 -76 -118.5 -109.5t-129.5 -33.5q-59 0 -100 16t-90 47q-49 29 -82 43t-80 14 q-43 0 -69.5 -16t-82.5 -84q-16 -20 -45 -20q-24 0 -41.5 18t-17.5 43z" />
<glyph unicode="&#xa1;" horiz-adv-x="516" d="M164 946v47q0 35 18.5 54.5t50.5 19.5h46q34 0 53.5 -19.5t19.5 -54.5v-47q0 -72 -73 -72h-46q-70 0 -69 72zM182 -295v1010q0 74 74 73q74 1 74 -73v-1010q0 -74 -74 -74t-74 74z" />
<glyph unicode="&#xa2;" horiz-adv-x="1003" d="M123 469v170q0 182 87 270t267 88v111q0 63 64 63q63 0 63 -63v-111q160 -2 239 -66.5t79 -199.5q0 -31 -21.5 -52.5t-52.5 -21.5t-52.5 21.5t-21.5 52.5q0 68 -34.5 93.5t-135.5 25.5v-590q100 0 135 25.5t35 93.5q0 31 21.5 52.5t52.5 21.5t52.5 -21.5t21.5 -52.5 q0 -135 -79 -199.5t-239 -66.5v-113q0 -63 -63 -63t-64 63v113q-182 2 -268 89t-86 267zM270 469q0 -82 18.5 -126t62.5 -62.5t126 -20.5v590q-119 0 -163 -45t-44 -166v-170z" />
<glyph unicode="&#xa3;" horiz-adv-x="1214" d="M20 498q0 63 64 63h115v320q0 231 107.5 338.5t336.5 107.5h43q211 0 308.5 -97t97.5 -308q0 -74 -74 -74t-74 74q0 102 -23.5 157.5t-78 78t-156.5 22.5h-43q-115 0 -178.5 -28t-91 -92.5t-27.5 -178.5v-320h379q63 0 63 -63t-63 -64h-379v-135q0 -92 -27 -152h740 q74 1 74 -73t-74 -74h-965v147q61 0 83 31t22 121v135h-115q-63 0 -64 64z" />
<glyph unicode="&#xa4;" horiz-adv-x="1228" d="M184 334q0 33 23 51l96 98q-70 102 -70 228q0 123 70 225l-96 98q-20 20 -21 51q0 31 21.5 52.5t52.5 21.5t53 -22l95 -97q98 70 225 70t227 -70l96 99q23 23 54 22q31 0 52 -21.5t21 -52.5t-20 -51l-98 -100q70 -102 69 -225q0 -127 -69 -228l98 -98q20 -20 20 -51 t-21.5 -52.5t-51.5 -21.5q-31 0 -54 23l-96 96q-102 -70 -227 -70q-123 0 -225 70l-99 -96q-18 -23 -51 -23q-31 0 -52.5 21.5t-21.5 52.5zM381 711q0 -106 73.5 -180t178.5 -74q106 0 180 73.5t74 180.5q0 104 -74 178t-180 74q-104 0 -178 -74t-74 -178z" />
<glyph unicode="&#xa5;" horiz-adv-x="1204" d="M41 1288q0 31 39 58q23 16 43 16q31 0 57 -39l422 -674l422 676q23 39 57 39q18 0 45 -16q37 -25 37 -60q0 -20 -14 -43l-447 -702h183q53 0 53 -54q0 -53 -53 -53h-209v-80h209q53 0 53 -53t-53 -53h-209v-176q0 -35 -19.5 -54.5t-54.5 -19.5q-74 0 -74 74v176h-211 q-53 0 -53 53t53 53h211v80h-211q-53 0 -53 53t53 54h185l-445 700q-16 27 -16 45z" />
<glyph unicode="&#xa6;" horiz-adv-x="475" d="M164 -246v588q0 31 21.5 52.5t52.5 21.5t52 -21.5t21 -52.5v-588q0 -31 -21.5 -52t-51.5 -21q-31 0 -52.5 21.5t-21.5 51.5zM164 797v583q0 31 21.5 52.5t52.5 21.5t52 -21.5t21 -52.5v-583q0 -31 -21.5 -52.5t-51.5 -21.5q-31 0 -52.5 21.5t-21.5 52.5z" />
<glyph unicode="&#xa7;" horiz-adv-x="1150" d="M164 672q0 190 155 241q-86 78 -86 205q0 111 67 168t194 57h200q256 0 256 -258q0 -29 -20.5 -49t-48.5 -20q-29 0 -49.5 20.5t-20.5 48.5q0 70 -23.5 94.5t-93.5 24.5h-200q-70 0 -95.5 -18.5t-25.5 -67.5q0 -59 30.5 -94t112.5 -63l203 -72q131 -45 189.5 -118 t58.5 -193q0 -166 -115 -228q74 -39 104.5 -92t30.5 -141q0 -147 -71.5 -219t-219.5 -72h-233q-147 0 -219 71.5t-72 219.5q0 29 20.5 49t49.5 20t49 -20.5t20 -48.5q0 -88 32 -120t120 -32h233q90 0 121 32t31 120q0 43 -11.5 66.5t-46 43t-114.5 45.5l-254 82 q-141 45 -199.5 117t-58.5 201zM303 672q0 -56 13.5 -88.5t46 -54t100.5 -44.5l229 -73q74 2 104.5 38.5t30.5 127.5q0 74 -31.5 110.5t-121.5 69.5l-203 71l-12 5q-88 0 -122 -35t-34 -127z" />
<glyph unicode="&#xa8;" horiz-adv-x="720" d="M103 1245v47q0 72 74 72h45q70 0 69 -72v-47q0 -35 -18.5 -54.5t-50.5 -19.5h-45q-35 0 -54.5 19.5t-19.5 54.5zM430 1245v47q0 72 74 72h45q70 0 69 -72v-47q0 -35 -18.5 -54.5t-50.5 -19.5h-45q-35 0 -54.5 19.5t-19.5 54.5z" />
<glyph unicode="&#xa9;" horiz-adv-x="1658" d="M164 676q0 190 86 341.5t237.5 237.5t341.5 86t342 -86t238 -237.5t86 -341.5t-86 -342t-237.5 -238t-342.5 -86q-190 0 -341.5 86t-237.5 237.5t-86 342.5zM291 676q0 -158 68.5 -280t190.5 -190.5t279 -68.5q158 0 280 68.5t190.5 190.5t68.5 280t-68.5 279.5 t-190.5 190t-280 68.5t-279.5 -68.5t-190 -190t-68.5 -279.5zM492 588v170q0 150 71.5 221.5t220.5 71.5h99q227 0 258 -152q6 -31 -10.5 -49.5t-53.5 -18.5q-23 0 -34 10.5t-20 25t-13 20.5q-12 20 -41 28.5t-86 8.5h-99q-96 0 -131 -34t-35 -132v-170q0 -96 35 -130 t131 -34h99q57 0 86.5 8t40.5 29q16 31 28.5 43t38.5 12q31 0 48.5 -14.5t17.5 -36.5q0 -10 -2 -16q-37 -152 -258 -152h-99q-149 0 -220.5 71.5t-71.5 219.5z" />
<glyph unicode="&#xaa;" horiz-adv-x="935" d="M123 860q0 238 237 238h322q-2 72 -35 98.5t-112 26.5h-115q-61 0 -94 -8.5t-47 -26.5q-25 -37 -37.5 -45t-36.5 -8q-29 0 -46.5 13t-17.5 38q0 12 2 18q20 76 88 113t189 37h115q141 0 209.5 -68.5t68.5 -210.5v-387q0 -66 -65 -65q-66 0 -66 65v31q-61 -96 -209 -96 h-113q-238 0 -237 237zM254 860q0 -63 21.5 -84.5t84.5 -21.5h113q209 0 209 84v129h-322q-63 0 -84.5 -20.5t-21.5 -86.5z" />
<glyph unicode="&#xab;" horiz-adv-x="1335" d="M184 602q0 23 27 45l381 316q18 14 41 14q27 0 45 -18.5t18 -45.5q0 -29 -24 -49l-318 -262l318 -262q25 -20 24 -49q0 -27 -18.5 -45.5t-44.5 -18.5q-23 1 -41 15l-381 315q-27 23 -27 45zM639 602q0 23 27 45l381 316q18 14 41 14q27 0 45 -18.5t18 -45.5 q0 -29 -24 -49l-318 -262l318 -262q25 -20 24 -49q0 -27 -18.5 -45.5t-44.5 -18.5q-23 1 -41 15l-381 315q-27 23 -27 45z" />
<glyph unicode="&#xac;" horiz-adv-x="1210" d="M168 721q0 25 17.5 42t41.5 17h756q59 0 59 -59v-236q0 -25 -17 -42t-42 -17t-42 17.5t-17 41.5v177h-697q-25 0 -42 17t-17 42z" />
<glyph unicode="&#xad;" horiz-adv-x="1019" d="M164 553q0 27 18.5 45t44.5 18h566q27 0 45 -18t18 -45t-18.5 -45.5t-44.5 -18.5h-566q-26 0 -44.5 18.5t-18.5 45.5z" />
<glyph unicode="&#xae;" horiz-adv-x="1658" d="M164 676q0 190 86 341.5t237.5 237.5t341.5 86t342 -86t238 -237.5t86 -341.5t-86 -342t-237.5 -238t-342.5 -86q-190 0 -341.5 86t-237.5 237.5t-86 342.5zM291 676q0 -158 68.5 -280t190.5 -190.5t279 -68.5q158 0 280 68.5t190.5 190.5t68.5 280t-68.5 279.5 t-190.5 190t-280 68.5t-279.5 -68.5t-190 -190t-68.5 -279.5zM586 387v600q0 63 63 64h199q102 0 158.5 -56.5t56.5 -158.5v-31q0 -74 -27.5 -124t-81.5 -73l107 -190q10 -20 10 -35q0 -33 -37 -51q-16 -8 -33 -8q-31 0 -53 34l-127 230h-108v-201q0 -63 -64 -63 q-63 0 -63 63zM713 715h135q49 0 68.5 19.5t19.5 70.5v31q0 49 -19.5 68.5t-68.5 19.5h-135v-209z" />
<glyph unicode="&#xaf;" horiz-adv-x="870" d="M102 1239q0 74 74 74h518q74 0 74 -74t-74 -74h-518q-74 0 -74 74z" />
<glyph unicode="&#xb0;" horiz-adv-x="583" d="M102 1069v148q0 80 43 122.5t123 42.5h47q80 0 123 -43t43 -122v-148q0 -80 -43 -123t-123 -43h-47q-80 0 -123 43t-43 123zM209 1069q0 -33 13.5 -46t45.5 -13h47q35 0 47.5 13t12.5 46v148q0 35 -12.5 47t-47.5 12h-47q-33 0 -46 -12.5t-13 -46.5v-148z" />
<glyph unicode="&#xb1;" horiz-adv-x="1210" d="M164 270q0 63 63 64h756q64 -1 64 -64t-64 -63h-756q-63 0 -63 63zM164 731q0 63 63 64h318v206q0 63 63 64q63 0 64 -64v-206h311q63 0 64 -64q0 -63 -64 -63h-311v-219q0 -63 -64 -64q-63 0 -63 64v219h-318q-63 0 -63 63z" />
<glyph unicode="&#xb2;" horiz-adv-x="757" d="M102 1192q0 12 2 18q35 143 211 144h103q205 0 205 -205q0 -63 -28 -107.5t-62.5 -70t-112.5 -74.5q-74 -45 -104.5 -70.5t-45.5 -64.5h297q70 0 70 -70t-70 -69h-374q-72 0 -72 69q0 88 32.5 148.5t74.5 94.5t118 81q90 55 113.5 75.5t23.5 57.5q0 43 -11 54t-54 11 h-103q-55 0 -67 -18q-27 -37 -40 -48t-38 -11q-31 0 -49.5 14t-18.5 41z" />
<glyph unicode="&#xb3;" horiz-adv-x="757" d="M123 793q0 27 18.5 41t48.5 14q29 0 39.5 -10.5t36.5 -51.5q8 -12 24.5 -16t49.5 -4h113q53 0 68.5 15.5t15.5 66.5q0 53 -15.5 68.5t-68.5 15.5h-52q-70 0 -69 69q0 70 69 70h45q76 0 76 72q0 49 -13 62.5t-60 13.5h-105q-49 0 -63 -17q-8 -10 -19.5 -27.5t-24 -24.5 t-30.5 -7q-35 0 -53.5 14t-18.5 41q0 12 2 19q31 141 207 141h105q104 0 158.5 -51.5t54.5 -143.5q0 -86 -66 -127q80 -55 80 -188q0 -221 -223 -221h-113q-184 0 -215 147q-2 6 -2 19z" />
<glyph unicode="&#xb4;" horiz-adv-x="497" d="M98 1118q0 25 19 45l159 191q20 27 48 26q23 0 45 -18q27 -20 26 -47q0 -23 -18 -45l-160 -191q-20 -27 -47 -26q-23 0 -45 18q-27 20 -27 47z" />
<glyph unicode="&#xb5;" horiz-adv-x="1380" d="M184 -115v1053q0 35 19.5 54.5t54.5 19.5t54.5 -19.5t19.5 -54.5v-551q0 -94 22.5 -145.5t73.5 -74t145 -22.5h58q152 0 242 41t90 125v627q0 35 19 54.5t54 19.5t54.5 -19.5t19.5 -54.5v-678q0 -70 21.5 -91.5t91.5 -21.5q41 0 58 -17t17 -56q0 -35 -19 -54.5t-56 -19.5 q-150 0 -230 131q-55 -63 -146 -98t-216 -35h-58q-162 0 -241 119v-211q0 -45 -19.5 -69.5t-54.5 -24.5t-54.5 19t-19.5 54z" />
<glyph unicode="&#xb6;" horiz-adv-x="1146" d="M82 926v59q0 174 90 264t264 90h443q63 0 63 -63v-1610q0 -27 -18.5 -45t-44.5 -18q-27 0 -45.5 18.5t-18.5 44.5v1546h-139v-1546q0 -27 -18.5 -45t-45.5 -18q-26 0 -44.5 18.5t-18.5 44.5v907h-113q-174 0 -264 90.5t-90 262.5z" />
<glyph unicode="&#xb7;" horiz-adv-x="516" d="M164 586v47q0 72 74 72h45q70 0 69 -72v-47q0 -35 -18.5 -54.5t-50.5 -19.5h-45q-35 0 -54.5 19.5t-19.5 54.5z" />
<glyph unicode="&#xb8;" horiz-adv-x="626" d="M102 -240q0 63 64 64q63 0 63 -64q0 -41 12.5 -52t51.5 -11q63 0 83.5 20.5t20.5 83.5q0 16 -8 26.5t-37 31.5q-45 29 -74.5 66.5t-29.5 105.5q0 63 63 63t64 -63q0 -23 9 -35t40 -33q43 -29 71.5 -64.5t28.5 -97.5q0 -231 -231 -231q-94 0 -142.5 48t-48.5 142z" />
<glyph unicode="&#xb9;" horiz-adv-x="577" d="M123 1116q0 29 27 53l157 156q25 23 43.5 30t48.5 7q56 0 56 -53v-613q0 -74 -74 -73q-35 0 -54.5 19.5t-19.5 53.5v422l-55 -53q-25 -25 -51 -25q-29 0 -54 25t-24 51z" />
<glyph unicode="&#xba;" horiz-adv-x="872" d="M82 909v131q0 145 70.5 216t216.5 71h135q287 0 287 -287v-129q0 -145 -71 -216.5t-216 -71.5h-135q-287 -1 -287 286zM229 909q0 -82 29 -110.5t111 -28.5h135q84 0 111.5 28.5t27.5 112.5v129q0 84 -27.5 112t-111.5 28h-135q-84 0 -112 -28t-28 -112v-131z" />
<glyph unicode="&#xbb;" horiz-adv-x="1331" d="M184 291q0 29 25 49l317 262l-317 262q-25 20 -25 49q0 27 18.5 45.5t45.5 18.5q23 0 41 -14l381 -316q27 -20 26 -45q0 -25 -26 -45l-381 -315q-18 -14 -41 -15q-27 0 -45.5 18.5t-18.5 45.5zM635 291q0 29 25 49l317 262l-317 262q-25 20 -25 49q0 27 18.5 45.5 t45.5 18.5q23 0 41 -14l381 -316q27 -20 26 -45q0 -25 -26 -45l-381 -315q-18 -14 -41 -15q-27 0 -45.5 18.5t-18.5 45.5z" />
<glyph unicode="&#xbc;" horiz-adv-x="1613" d="M123 1116q0 29 27 53l157 156q25 23 43.5 30t48.5 7q56 0 56 -53v-613q0 -74 -74 -73q-35 0 -54.5 19.5t-19.5 53.5v422l-55 -53q-25 -25 -51 -25q-29 0 -54 25t-24 51zM230 45q0 25 14 45l944 1249q25 31 60 31q31 0 52 -21.5t21 -52.5q0 -23 -14 -45l-944 -1249 q-25 -31 -59 -31q-31 0 -52.5 21.5t-21.5 52.5zM885 211q0 35 29 72l340 418q35 43 84 43q61 0 61 -70l-2 -391h65q70 0 70 -72q0 -70 -70 -69h-67v-68q0 -70 -70 -69q-70 0 -69 69v68h-301q-70 0 -70 69zM1069 283h189l2 229z" />
<glyph unicode="&#xbd;" horiz-adv-x="1648" d="M123 1116q0 29 27 53l157 156q25 23 43.5 30t48.5 7q56 0 56 -53v-613q0 -74 -74 -73q-35 0 -54.5 19.5t-19.5 53.5v422l-55 -53q-25 -25 -51 -25q-29 0 -54 25t-24 51zM230 45q0 25 14 45l944 1249q25 31 60 31q31 0 52 -21.5t21 -52.5q0 -23 -14 -45l-944 -1249 q-25 -31 -59 -31q-31 0 -52.5 21.5t-21.5 52.5zM991 569q0 12 2 18q35 143 211 144h103q205 0 205 -205q0 -63 -28 -107.5t-62.5 -70t-112.5 -74.5q-74 -45 -104.5 -70.5t-45.5 -64.5h297q70 0 70 -70t-70 -69h-374q-72 0 -72 69q0 88 32.5 148.5t74.5 94.5t118 81 q90 55 113.5 75.5t23.5 57.5q0 43 -11 54t-54 11h-103q-55 0 -67 -18q-27 -37 -40 -48t-38 -11q-31 0 -49.5 14t-18.5 41z" />
<glyph unicode="&#xbe;" horiz-adv-x="1794" d="M123 793q0 27 18.5 41t48.5 14q29 0 39.5 -10.5t36.5 -51.5q8 -12 24.5 -16t49.5 -4h113q53 0 68.5 15.5t15.5 66.5q0 53 -15.5 68.5t-68.5 15.5h-52q-70 0 -69 69q0 70 69 70h45q76 0 76 72q0 49 -13 62.5t-60 13.5h-105q-49 0 -63 -17q-8 -10 -19.5 -27.5t-24 -24.5 t-30.5 -7q-35 0 -53.5 14t-18.5 41q0 12 2 19q31 141 207 141h105q104 0 158.5 -51.5t54.5 -143.5q0 -86 -66 -127q80 -55 80 -188q0 -221 -223 -221h-113q-184 0 -215 147q-2 6 -2 19zM410 45q0 25 14 45l944 1249q25 31 60 31q31 0 52 -21.5t21 -52.5q0 -23 -14 -45 l-944 -1249q-25 -31 -59 -31q-31 0 -52.5 21.5t-21.5 52.5zM1065 211q0 35 29 72l340 418q35 43 84 43q61 0 61 -70l-2 -391h65q70 0 70 -72q0 -70 -70 -69h-67v-68q0 -70 -70 -69q-70 0 -69 69v68h-301q-70 0 -70 69zM1249 283h189l2 229z" />
<glyph unicode="&#xbf;" horiz-adv-x="1024" d="M123 84q0 100 32.5 167.5t75.5 103.5t109 75q57 35 85 58.5t44 61.5t16 101q0 74 74 74t74 -74q0 -100 -33 -167.5t-76 -103.5t-108 -75q-57 -35 -85 -58.5t-44.5 -61.5t-16.5 -101q0 -127 47.5 -173t171.5 -46h138q125 0 172 47t47 172q0 74 74 74t73 -74 q0 -186 -90 -276.5t-276 -90.5h-138q-186 0 -276 89.5t-90 277.5zM465 924v47q0 35 18.5 54t51.5 19h45q34 0 53.5 -19t19.5 -54v-47q0 -72 -73 -72h-45q-70 0 -70 72z" />
<glyph unicode="&#xc0;" horiz-adv-x="1323" d="M76 70q0 18 8 34l494 1201q25 57 84 57h4q55 0 79 -57l498 -1201q8 -16 8 -34q0 -43 -47 -62q-18 -8 -37 -8q-41 0 -59 47l-121 289h-649l-117 -289q-18 -47 -61 -47q-18 0 -35 8q-49 18 -49 62zM397 483h529l-269 645zM473 1706q0 27 26 47q20 18 45 18q27 0 47 -26 l160 -191q18 -20 19 -45q0 -27 -27 -47q-22 -18 -45 -18q-27 0 -47 26l-160 191q-18 23 -18 45z" />
<glyph unicode="&#xc1;" horiz-adv-x="1323" d="M76 70q0 18 8 34l494 1201q25 57 84 57h4q55 0 79 -57l498 -1201q8 -16 8 -34q0 -43 -47 -62q-18 -8 -37 -8q-41 0 -59 47l-121 289h-649l-117 -289q-18 -47 -61 -47q-18 0 -35 8q-49 18 -49 62zM397 483h529l-269 645zM621 1509q0 25 18 45l160 191q20 27 47 26 q23 0 45 -18q27 -20 27 -47q0 -23 -19 -45l-160 -191q-20 -27 -47 -26q-25 0 -45 18q-26 20 -26 47z" />
<glyph unicode="&#xc2;" horiz-adv-x="1323" d="M76 70q0 18 8 34l494 1201q25 57 84 57h4q55 0 79 -57l498 -1201q8 -16 8 -34q0 -43 -47 -62q-18 -8 -37 -8q-41 0 -59 47l-121 289h-649l-117 -289q-18 -47 -61 -47q-18 0 -35 8q-49 18 -49 62zM346 1528q0 16 8 31.5t23 25.5l194 162q37 31 84 31h12q47 0 84 -31 l195 -162q14 -10 22.5 -25.5t8.5 -31.5q0 -27 -20.5 -47.5t-47.5 -20.5q-29 0 -49 21l-195 161h-8l-194 -161q-20 -20 -50 -21q-28 0 -47.5 20.5t-19.5 47.5zM397 483h529l-269 645z" />
<glyph unicode="&#xc3;" horiz-adv-x="1323" d="M76 70q0 18 8 34l494 1201q25 57 84 57h4q55 0 79 -57l498 -1201q8 -16 8 -34q0 -43 -47 -62q-18 -8 -37 -8q-41 0 -59 47l-121 289h-649l-117 -289q-18 -47 -61 -47q-18 0 -35 8q-49 18 -49 62zM352 1556q0 14 7 29q33 84 81 122t119 38q57 0 94 -22.5t76 -61.5 q27 -27 41.5 -35t34.5 -8q25 0 40 14t30 49q18 49 55 49q14 0 20 -2q47 -10 48 -51q0 -16 -4 -24q-29 -80 -74 -119t-115 -39q-55 0 -91 21.5t-73 58.5q-27 29 -43 38t-39 9q-29 0 -48 -15.5t-36 -56.5q-16 -47 -53 -47q-8 0 -24 4q-45 12 -46 49zM397 483h529l-269 645z " />
<glyph unicode="&#xc4;" horiz-adv-x="1323" d="M76 70q0 18 8 34l494 1201q25 57 84 57h4q55 0 79 -57l498 -1201q8 -16 8 -34q0 -43 -47 -62q-18 -8 -37 -8q-41 0 -59 47l-121 289h-649l-117 -289q-18 -47 -61 -47q-18 0 -35 8q-49 18 -49 62zM397 483h529l-269 645zM406 1596v47q0 72 74 72h45q70 0 69 -72v-47 q0 -35 -18.5 -54.5t-50.5 -19.5h-45q-35 0 -54.5 19.5t-19.5 54.5zM733 1596v47q0 72 74 72h45q70 0 69 -72v-47q0 -35 -18.5 -54.5t-50.5 -19.5h-45q-35 0 -54.5 19.5t-19.5 54.5z" />
<glyph unicode="&#xc5;" horiz-adv-x="1323" d="M76 70q0 18 8 34l494 1201q25 57 84 57h4q55 0 79 -57l498 -1201q8 -16 8 -34q0 -43 -47 -62q-18 -8 -37 -8q-41 0 -59 47l-121 289h-649l-117 -289q-18 -47 -61 -47q-18 0 -35 8q-49 18 -49 62zM397 483h529l-269 645zM506 1630q0 74 42 116t116 42t116 -42t42 -116 t-42 -116t-116 -42t-116 42t-42 116zM615 1630q0 -35 8 -42t41 -7q35 0 42 8t7 41q0 35 -8 42t-41 7q-35 0 -42 -8t-7 -41z" />
<glyph unicode="&#xc6;" horiz-adv-x="1736" d="M76 72q0 20 12 41l680 1198q31 51 88 51h705q35 0 54 -19.5t19 -54.5t-19.5 -54.5t-53.5 -19.5h-551v-452h309q35 0 54.5 -19.5t19.5 -54.5t-19.5 -54.5t-54.5 -19.5h-309v-467h551q35 0 54 -19t19 -54t-19.5 -54.5t-53.5 -19.5h-625q-74 0 -74 74v262h-477l-168 -295 q-23 -41 -59 -41q-18 0 -41 12q-41 25 -41 60zM469 483h393v695h-8z" />
<glyph unicode="&#xc7;" horiz-adv-x="1400" d="M164 446v469q0 231 107.5 340t336.5 107h248q190 0 288.5 -79t112.5 -251q4 -37 -15 -56.5t-56 -19.5q-66 0 -76 74q-10 104 -66.5 144t-187.5 40h-248q-113 2 -177 -25.5t-92 -93t-28 -180.5v-469q0 -115 28 -179t92.5 -92t178.5 -28h246q131 0 187.5 40t66.5 145 q10 74 76 74q37 0 56.5 -19.5t14.5 -56.5q-14 -170 -110 -249t-283 -81q8 -14 43 -37q43 -29 72 -64.5t29 -97.5q0 -231 -232 -231q-94 0 -142 48t-48 142q0 63 63 64q63 0 64 -64q0 -41 12 -52t51 -11q63 0 84 20.5t21 83.5q0 16 -8.5 26.5t-36.5 31.5q-41 29 -68 58.5 t-35 82.5h-123q-229 0 -337.5 108.5t-108.5 337.5z" />
<glyph unicode="&#xc8;" horiz-adv-x="1202" d="M205 74v1214q0 35 19.5 54.5t54.5 19.5h747q35 0 54.5 -19.5t19.5 -54.5t-19.5 -54.5t-54.5 -19.5h-674v-452h432q35 0 54.5 -19.5t19.5 -54.5t-19.5 -54.5t-54.5 -19.5h-432v-467h674q35 0 54.5 -19t19.5 -54t-19.5 -54.5t-54.5 -19.5h-747q-35 0 -54.5 19.5t-19.5 54.5 zM494 1706q0 27 26 47q20 18 45 18q27 0 47 -26l160 -191q18 -20 19 -45q0 -27 -27 -47q-22 -18 -45 -18q-27 0 -47 26l-160 191q-18 23 -18 45z" />
<glyph unicode="&#xc9;" horiz-adv-x="1202" d="M205 74v1214q0 35 19.5 54.5t54.5 19.5h747q35 0 54.5 -19.5t19.5 -54.5t-19.5 -54.5t-54.5 -19.5h-674v-452h432q35 0 54.5 -19.5t19.5 -54.5t-19.5 -54.5t-54.5 -19.5h-432v-467h674q35 0 54.5 -19t19.5 -54t-19.5 -54.5t-54.5 -19.5h-747q-35 0 -54.5 19.5t-19.5 54.5 zM609 1536q0 25 18 45l160 190q20 27 47 27q23 0 45 -18q27 -20 27 -48q0 -23 -19 -45l-160 -190q-20 -27 -47 -27q-25 0 -45 19q-26 20 -26 47z" />
<glyph unicode="&#xca;" horiz-adv-x="1202" d="M205 74v1214q0 35 19.5 54.5t54.5 19.5h747q35 0 54.5 -19.5t19.5 -54.5t-19.5 -54.5t-54.5 -19.5h-674v-452h432q35 0 54.5 -19.5t19.5 -54.5t-19.5 -54.5t-54.5 -19.5h-432v-467h674q35 0 54.5 -19t19.5 -54t-19.5 -54.5t-54.5 -19.5h-747q-35 0 -54.5 19.5t-19.5 54.5 zM367 1528q0 16 8 31.5t23 25.5l194 162q37 31 84 31h12q47 0 84 -31l195 -162q14 -10 22.5 -25.5t8.5 -31.5q0 -27 -20.5 -47.5t-47.5 -20.5q-29 0 -49 21l-195 161h-8l-194 -161q-20 -20 -50 -21q-28 0 -47.5 20.5t-19.5 47.5z" />
<glyph unicode="&#xcb;" horiz-adv-x="1202" d="M205 74v1214q0 35 19.5 54.5t54.5 19.5h747q35 0 54.5 -19.5t19.5 -54.5t-19.5 -54.5t-54.5 -19.5h-674v-452h432q35 0 54.5 -19.5t19.5 -54.5t-19.5 -54.5t-54.5 -19.5h-432v-467h674q35 0 54.5 -19t19.5 -54t-19.5 -54.5t-54.5 -19.5h-747q-35 0 -54.5 19.5t-19.5 54.5 zM426 1596v47q0 72 74 72h45q70 0 69 -72v-47q0 -35 -18.5 -54.5t-50.5 -19.5h-45q-35 0 -54.5 19.5t-19.5 54.5zM754 1596v47q0 72 74 72h45q70 0 69 -72v-47q0 -35 -18.5 -54.5t-50.5 -19.5h-45q-35 0 -54.5 19.5t-19.5 54.5z" />
<glyph unicode="&#xcc;" horiz-adv-x="557" d="M88 1706q0 27 26 47q20 18 45 18q27 0 47 -26l160 -191q18 -20 19 -45q0 -27 -27 -47q-22 -18 -45 -18q-27 0 -47 26l-160 191q-18 23 -18 45zM205 74v1214q0 74 74 74t73 -74v-1214q0 -74 -73 -74q-74 0 -74 74z" />
<glyph unicode="&#xcd;" horiz-adv-x="557" d="M203 1536q0 25 18 45l160 190q20 27 47 27q23 0 45 -18q27 -20 27 -48q0 -23 -19 -45l-160 -190q-20 -27 -47 -27q-25 0 -45 19q-26 20 -26 47zM205 74v1214q0 74 74 74t73 -74v-1214q0 -74 -73 -74q-74 0 -74 74z" />
<glyph unicode="&#xce;" horiz-adv-x="557" d="M23 1536q0 23 16 43l153 168q33 35 78 35h21q45 0 78 -35l153 -168q16 -20 17 -43q0 -27 -18.5 -45.5t-45.5 -18.5q-29 0 -47 21l-137 162h-21l-137 -162q-20 -20 -47 -21q-27 0 -45 18.5t-18 45.5zM205 74v1214q0 74 74 74t73 -74v-1214q0 -74 -73 -74q-74 0 -74 74z " />
<glyph unicode="&#xcf;" horiz-adv-x="557" d="M21 1596v47q0 72 74 72h45q70 0 69 -72v-47q0 -35 -18.5 -54.5t-50.5 -19.5h-45q-35 0 -54.5 19.5t-19.5 54.5zM205 74v1214q0 74 74 74t73 -74v-1214q0 -74 -73 -74q-74 0 -74 74zM348 1596v47q0 72 74 72h45q70 0 69 -72v-47q0 -35 -18.5 -54.5t-50.5 -19.5h-45 q-35 0 -54.5 19.5t-19.5 54.5z" />
<glyph unicode="&#xd0;" horiz-adv-x="1443" d="M39 682q0 63 63 63h103v543q0 35 19.5 54.5t54.5 19.5h493q262 0 385 -123t123 -385v-346q0 -262 -123 -385t-385 -123h-493q-35 0 -54.5 19.5t-19.5 54.5v544h-103q-63 0 -63 64zM352 147h420q135 0 213 35t113 113t35 213v346q0 135 -35 213t-113 112.5t-213 34.5h-420 v-469h285q63 0 63 -63t-63 -64h-285v-471z" />
<glyph unicode="&#xd1;" horiz-adv-x="1509" d="M205 74v1214q0 35 19.5 54.5t54.5 19.5q43 0 73 -43l805 -1034v1003q0 35 19.5 54.5t54.5 19.5t54.5 -19.5t19.5 -54.5v-1214q0 -35 -19.5 -54.5t-54.5 -19.5q-20 0 -37.5 10t-36.5 33l-805 1036v-1005q0 -35 -19.5 -54.5t-53.5 -19.5q-35 0 -54.5 19.5t-19.5 54.5z M444 1556q0 14 7 29q33 84 81 122t119 38q57 0 94 -22.5t76 -61.5q27 -27 41.5 -35t34.5 -8q25 0 40 14t30 49q18 49 55 49q14 0 20 -2q47 -10 48 -51q0 -16 -4 -24q-29 -80 -74 -119t-115 -39q-55 0 -91 21.5t-73 58.5q-27 29 -43 38t-39 9q-29 0 -48 -15.5t-36 -56.5 q-16 -47 -53 -47q-8 0 -24 4q-45 12 -46 49z" />
<glyph unicode="&#xd2;" horiz-adv-x="1466" d="M164 446v472q0 231 108.5 338.5t337.5 105.5h246q231 0 339 -107.5t108 -339.5v-469q0 -229 -108 -337.5t-339 -108.5h-246q-229 0 -337.5 108.5t-108.5 337.5zM311 446q0 -115 28 -179t92.5 -92t178.5 -28h246q115 0 179.5 28t92 92.5t27.5 178.5v469q0 115 -27.5 179.5 t-92 92t-179.5 27.5h-246q-115 2 -179 -25.5t-92 -92t-28 -178.5v-472zM543 1706q0 27 26 47q20 18 45 18q27 0 47 -26l160 -191q18 -20 19 -45q0 -27 -27 -47q-22 -18 -45 -18q-27 0 -47 26l-160 191q-18 23 -18 45z" />
<glyph unicode="&#xd3;" horiz-adv-x="1466" d="M164 446v472q0 231 108.5 338.5t337.5 105.5h246q231 0 339 -107.5t108 -339.5v-469q0 -229 -108 -337.5t-339 -108.5h-246q-229 0 -337.5 108.5t-108.5 337.5zM311 446q0 -115 28 -179t92.5 -92t178.5 -28h246q115 0 179.5 28t92 92.5t27.5 178.5v469q0 115 -27.5 179.5 t-92 92t-179.5 27.5h-246q-115 2 -179 -25.5t-92 -92t-28 -178.5v-472zM658 1536q0 25 18 45l160 190q20 27 47 27q23 0 45 -18q27 -20 27 -48q0 -23 -19 -45l-160 -190q-20 -27 -47 -27q-25 0 -45 19q-26 20 -26 47z" />
<glyph unicode="&#xd4;" horiz-adv-x="1466" d="M164 446v472q0 231 108.5 338.5t337.5 105.5h246q231 0 339 -107.5t108 -339.5v-469q0 -229 -108 -337.5t-339 -108.5h-246q-229 0 -337.5 108.5t-108.5 337.5zM311 446q0 -115 28 -179t92.5 -92t178.5 -28h246q115 0 179.5 28t92 92.5t27.5 178.5v469q0 115 -27.5 179.5 t-92 92t-179.5 27.5h-246q-115 2 -179 -25.5t-92 -92t-28 -178.5v-472zM416 1528q0 16 8 31.5t23 25.5l194 162q37 31 84 31h12q47 0 84 -31l195 -162q14 -10 22.5 -25.5t8.5 -31.5q0 -27 -20.5 -47.5t-47.5 -20.5q-29 0 -49 21l-195 161h-8l-194 -161q-20 -20 -50 -21 q-28 0 -47.5 20.5t-19.5 47.5z" />
<glyph unicode="&#xd5;" horiz-adv-x="1466" d="M164 446v472q0 231 108.5 338.5t337.5 105.5h246q231 0 339 -107.5t108 -339.5v-469q0 -229 -108 -337.5t-339 -108.5h-246q-229 0 -337.5 108.5t-108.5 337.5zM311 446q0 -115 28 -179t92.5 -92t178.5 -28h246q115 0 179.5 28t92 92.5t27.5 178.5v469q0 115 -27.5 179.5 t-92 92t-179.5 27.5h-246q-115 2 -179 -25.5t-92 -92t-28 -178.5v-472zM421 1556q0 14 7 29q33 84 81 122t119 38q57 0 94 -22.5t76 -61.5q27 -27 41.5 -35t34.5 -8q25 0 40 14t30 49q18 49 55 49q14 0 20 -2q47 -10 48 -51q0 -16 -4 -24q-29 -80 -74 -119t-115 -39 q-55 0 -91 21.5t-73 58.5q-27 29 -43 38t-39 9q-29 0 -48 -15.5t-36 -56.5q-16 -47 -53 -47q-8 0 -24 4q-45 12 -46 49z" />
<glyph unicode="&#xd6;" horiz-adv-x="1466" d="M164 446v472q0 231 108.5 338.5t337.5 105.5h246q231 0 339 -107.5t108 -339.5v-469q0 -229 -108 -337.5t-339 -108.5h-246q-229 0 -337.5 108.5t-108.5 337.5zM311 446q0 -115 28 -179t92.5 -92t178.5 -28h246q115 0 179.5 28t92 92.5t27.5 178.5v469q0 115 -27.5 179.5 t-92 92t-179.5 27.5h-246q-115 2 -179 -25.5t-92 -92t-28 -178.5v-472zM475 1596v47q0 72 74 72h45q70 0 69 -72v-47q0 -35 -18.5 -54.5t-50.5 -19.5h-45q-35 0 -54.5 19.5t-19.5 54.5zM803 1596v47q0 72 74 72h45q70 0 69 -72v-47q0 -35 -18.5 -54.5t-50.5 -19.5h-45 q-35 0 -54.5 19.5t-19.5 54.5z" />
<glyph unicode="&#xd7;" horiz-adv-x="1210" d="M272 397q0 25 21 45l225 226l-225 223q-20 20 -21 45q0 25 21 45q23 23 45 23q23 0 45 -23l225 -223l219 219q23 23 45 22q23 0 46 -22q23 -23 22 -45q0 -23 -22 -45l-220 -219l220 -222q23 -23 22 -45q0 -23 -22 -45q-20 -20 -46 -20q-25 0 -45 20l-219 222l-225 -226 q-20 -20 -45 -20t-45 20t-21 45z" />
<glyph unicode="&#xd8;" horiz-adv-x="1466" d="M164 446v472q0 231 108.5 338.5t337.5 105.5h246q104 0 174 -21l43 70q23 37 55 37q20 0 41 -14q37 -20 37 -56q0 -20 -14 -41l-33 -53q144 -105 144 -369v-469q0 -229 -108 -337.5t-339 -108.5h-246q-127 0 -215 31l-41 -68q-20 -37 -55 -37q-20 0 -41 15q-37 25 -37 55 q0 20 12 41l41 67q-111 109 -110 342zM311 446q0 -142 45 -208l594 970q-43 6 -94 6h-246q-115 2 -179 -25.5t-92 -92t-28 -178.5v-472zM475 162q51 -14 135 -15h246q115 0 179.5 28t92 92.5t27.5 178.5v469q0 92 -17.5 150.5t-56.5 91.5z" />
<glyph unicode="&#xd9;" horiz-adv-x="1507" d="M184 446v842q0 35 19.5 54.5t54.5 19.5t54.5 -19.5t19.5 -54.5v-842q0 -115 27.5 -179t92 -92t179.5 -28h246q115 0 179 28t92 92.5t28 178.5v842q0 35 19 54.5t54 19.5t54.5 -19.5t19.5 -54.5v-842q0 -229 -107.5 -337.5t-338.5 -108.5h-246q-230 0 -338.5 108.5 t-108.5 337.5zM564 1706q0 27 26 47q20 18 45 18q27 0 47 -26l160 -191q18 -20 19 -45q0 -27 -27 -47q-22 -18 -45 -18q-27 0 -47 26l-160 191q-18 23 -18 45z" />
<glyph unicode="&#xda;" horiz-adv-x="1507" d="M184 446v842q0 35 19.5 54.5t54.5 19.5t54.5 -19.5t19.5 -54.5v-842q0 -115 27.5 -179t92 -92t179.5 -28h246q115 0 179 28t92 92.5t28 178.5v842q0 35 19 54.5t54 19.5t54.5 -19.5t19.5 -54.5v-842q0 -229 -107.5 -337.5t-338.5 -108.5h-246q-230 0 -338.5 108.5 t-108.5 337.5zM678 1536q0 25 18 45l160 190q20 27 47 27q23 0 45 -18q27 -20 27 -48q0 -23 -19 -45l-160 -190q-20 -27 -47 -27q-25 0 -45 19q-26 20 -26 47z" />
<glyph unicode="&#xdb;" horiz-adv-x="1507" d="M184 446v842q0 35 19.5 54.5t54.5 19.5t54.5 -19.5t19.5 -54.5v-842q0 -115 27.5 -179t92 -92t179.5 -28h246q115 0 179 28t92 92.5t28 178.5v842q0 35 19 54.5t54 19.5t54.5 -19.5t19.5 -54.5v-842q0 -229 -107.5 -337.5t-338.5 -108.5h-246q-230 0 -338.5 108.5 t-108.5 337.5zM436 1528q0 16 8 31.5t23 25.5l194 162q37 31 84 31h12q47 0 84 -31l195 -162q14 -10 22.5 -25.5t8.5 -31.5q0 -27 -20.5 -47.5t-47.5 -20.5q-29 0 -49 21l-195 161h-8l-194 -161q-20 -20 -50 -21q-28 0 -47.5 20.5t-19.5 47.5z" />
<glyph unicode="&#xdc;" horiz-adv-x="1507" d="M184 446v842q0 35 19.5 54.5t54.5 19.5t54.5 -19.5t19.5 -54.5v-842q0 -115 27.5 -179t92 -92t179.5 -28h246q115 0 179 28t92 92.5t28 178.5v842q0 35 19 54.5t54 19.5t54.5 -19.5t19.5 -54.5v-842q0 -229 -107.5 -337.5t-338.5 -108.5h-246q-230 0 -338.5 108.5 t-108.5 337.5zM496 1596v47q0 72 74 72h45q70 0 69 -72v-47q0 -35 -18.5 -54.5t-50.5 -19.5h-45q-35 0 -54.5 19.5t-19.5 54.5zM823 1596v47q0 72 74 72h45q70 0 69 -72v-47q0 -35 -18.5 -54.5t-50.5 -19.5h-45q-35 0 -54.5 19.5t-19.5 54.5z" />
<glyph unicode="&#xdd;" horiz-adv-x="1202" d="M41 1288q0 35 37 60q23 14 45 14q37 0 57 -37l414 -661l428 661q20 37 55 37q23 0 45 -16q39 -23 39 -58q0 -20 -16 -43l-477 -739v-432q0 -35 -19.5 -54.5t-54.5 -19.5t-54.5 19.5t-19.5 54.5v432l-465 739q-14 23 -14 43zM525 1536q0 25 18 45l160 190q20 27 47 27 q23 0 45 -18q27 -20 27 -48q0 -23 -19 -45l-160 -190q-20 -27 -47 -27q-25 0 -45 19q-26 20 -26 47z" />
<glyph unicode="&#xde;" horiz-adv-x="1116" d="M205 74v1214q0 35 19.5 54.5t54.5 19.5t54 -19.5t19 -54.5v-129h307q183 0 279 -96t96 -279v-61q0 -182 -96 -278.5t-279 -96.5h-307v-274q0 -35 -19.5 -54.5t-53.5 -19.5q-35 0 -54.5 19.5t-19.5 54.5zM352 496h307q121 0 174.5 53t53.5 174v61q0 121 -53.5 174.5 t-174.5 53.5h-307v-516z" />
<glyph unicode="&#xdf;" horiz-adv-x="1161" d="M205 74v993q0 188 90 277.5t276 89.5t275.5 -89.5t89.5 -275.5q0 -182 -148 -260q143 -33 207 -116t64 -226v-82q0 -199 -93.5 -292t-291.5 -93h-125q-74 0 -74 74t74 73h125q92 0 143 21.5t72.5 73t21.5 143.5v82q0 92 -21.5 143.5t-72.5 73t-143 21.5h-29q-74 0 -74 75 q0 68 72 76q82 10 113.5 58.5t31.5 154.5q0 125 -46 171t-171 46t-172 -46t-47 -173v-993q0 -74 -73 -74q-74 0 -74 74z" />
<glyph unicode="&#xe0;" horiz-adv-x="1269" d="M164 328q0 168 80 247.5t248 79.5h446q-6 119 -59.5 164t-182.5 45h-118q-115 0 -168.5 -19.5t-71.5 -66.5q-14 -37 -30.5 -51t-49.5 -14t-53.5 16t-20.5 43q0 10 2 16q25 115 120 169.5t272 54.5h118q201 0 295 -94.5t94 -294.5v-549q0 -35 -19 -54.5t-54 -19.5 t-54.5 19.5t-19.5 54.5v65q-109 -139 -332 -139h-114q-168 0 -248 80t-80 248zM311 328q0 -106 37 -143.5t144 -37.5h114q281 0 324 166q4 17 8 25v170h-446q-106 0 -143.5 -37t-37.5 -143zM430 1356q0 27 26 47q20 18 45 18q27 0 47 -26l160 -191q18 -20 19 -45 q0 -27 -27 -47q-22 -18 -45 -18q-27 0 -47 26l-160 191q-18 23 -18 45z" />
<glyph unicode="&#xe1;" horiz-adv-x="1269" d="M164 328q0 168 80 247.5t248 79.5h446q-6 119 -59.5 164t-182.5 45h-118q-115 0 -168.5 -19.5t-71.5 -66.5q-14 -37 -30.5 -51t-49.5 -14t-53.5 16t-20.5 43q0 10 2 16q25 115 120 169.5t272 54.5h118q201 0 295 -94.5t94 -294.5v-549q0 -35 -19 -54.5t-54 -19.5 t-54.5 19.5t-19.5 54.5v65q-109 -139 -332 -139h-114q-168 0 -248 80t-80 248zM311 328q0 -106 37 -143.5t144 -37.5h114q281 0 324 166q4 17 8 25v170h-446q-106 0 -143.5 -37t-37.5 -143zM545 1186q0 25 18 45l160 190q20 27 47 27q23 0 45 -18q27 -20 27 -48 q0 -23 -19 -45l-160 -190q-20 -27 -47 -27q-25 0 -45 19q-26 20 -26 47z" />
<glyph unicode="&#xe2;" horiz-adv-x="1269" d="M164 328q0 168 80 247.5t248 79.5h446q-6 119 -59.5 164t-182.5 45h-118q-115 0 -168.5 -19.5t-71.5 -66.5q-14 -37 -30.5 -51t-49.5 -14t-53.5 16t-20.5 43q0 10 2 16q25 115 120 169.5t272 54.5h118q201 0 295 -94.5t94 -294.5v-549q0 -35 -19 -54.5t-54 -19.5 t-54.5 19.5t-19.5 54.5v65q-109 -139 -332 -139h-114q-168 0 -248 80t-80 248zM311 328q0 -106 37 -143.5t144 -37.5h114q281 0 324 166q4 17 8 25v170h-446q-106 0 -143.5 -37t-37.5 -143zM365 1186q0 23 16 43l153 168q33 35 78 35h21q45 0 78 -35l153 -168q16 -20 17 -43 q0 -27 -18.5 -45.5t-45.5 -18.5q-29 0 -47 21l-137 162h-21l-137 -162q-20 -20 -47 -21q-27 0 -45 18.5t-18 45.5z" />
<glyph unicode="&#xe3;" horiz-adv-x="1269" d="M164 328q0 168 80 247.5t248 79.5h446q-6 119 -59.5 164t-182.5 45h-118q-115 0 -168.5 -19.5t-71.5 -66.5q-14 -37 -30.5 -51t-49.5 -14t-53.5 16t-20.5 43q0 10 2 16q25 115 120 169.5t272 54.5h118q201 0 295 -94.5t94 -294.5v-549q0 -35 -19 -54.5t-54 -19.5 t-54.5 19.5t-19.5 54.5v65q-109 -139 -332 -139h-114q-168 0 -248 80t-80 248zM309 1206q0 14 7 29q33 84 81 122t119 38q57 0 94 -22.5t76 -61.5q27 -27 41.5 -35t34.5 -8q25 0 40 14t30 49q18 49 55 49q14 0 20 -2q47 -10 48 -51q0 -16 -4 -24q-29 -80 -74 -119t-115 -39 q-55 0 -91 21.5t-73 58.5q-27 29 -43 38t-39 9q-29 0 -48 -15.5t-36 -56.5q-16 -47 -53 -47q-8 0 -24 4q-45 12 -46 49zM311 328q0 -106 37 -143.5t144 -37.5h114q281 0 324 166q4 17 8 25v170h-446q-106 0 -143.5 -37t-37.5 -143z" />
<glyph unicode="&#xe4;" horiz-adv-x="1269" d="M164 328q0 168 80 247.5t248 79.5h446q-6 119 -59.5 164t-182.5 45h-118q-115 0 -168.5 -19.5t-71.5 -66.5q-14 -37 -30.5 -51t-49.5 -14t-53.5 16t-20.5 43q0 10 2 16q25 115 120 169.5t272 54.5h118q201 0 295 -94.5t94 -294.5v-549q0 -35 -19 -54.5t-54 -19.5 t-54.5 19.5t-19.5 54.5v65q-109 -139 -332 -139h-114q-168 0 -248 80t-80 248zM311 328q0 -106 37 -143.5t144 -37.5h114q281 0 324 166q4 17 8 25v170h-446q-106 0 -143.5 -37t-37.5 -143zM363 1245v47q0 72 74 72h45q70 0 69 -72v-47q0 -35 -18.5 -54.5t-50.5 -19.5h-45 q-35 0 -54.5 19.5t-19.5 54.5zM690 1245v47q0 72 74 72h45q70 0 69 -72v-47q0 -35 -18.5 -54.5t-50.5 -19.5h-45q-35 0 -54.5 19.5t-19.5 54.5z" />
<glyph unicode="&#xe5;" horiz-adv-x="1269" d="M164 328q0 168 80 247.5t248 79.5h446q-6 119 -59.5 164t-182.5 45h-118q-115 0 -168.5 -19.5t-71.5 -66.5q-14 -37 -30.5 -51t-49.5 -14t-53.5 16t-20.5 43q0 10 2 16q25 115 120 169.5t272 54.5h118q201 0 295 -94.5t94 -294.5v-549q0 -35 -19 -54.5t-54 -19.5 t-54.5 19.5t-19.5 54.5v65q-109 -139 -332 -139h-114q-168 0 -248 80t-80 248zM311 328q0 -106 37 -143.5t144 -37.5h114q281 0 324 166q4 17 8 25v170h-446q-106 0 -143.5 -37t-37.5 -143zM463 1280q0 74 42 116t116 42t116 -42t42 -116t-42 -116t-116 -42t-116 42t-42 116 zM572 1280q0 -35 8 -42t41 -7q35 0 42 8t7 41q0 35 -8 42t-41 7q-35 0 -42 -8t-7 -41z" />
<glyph unicode="&#xe6;" horiz-adv-x="1945" d="M164 299q0 168 80 248t248 80h405q-8 115 -60.5 158.5t-181.5 43.5h-77q-98 0 -152.5 -14t-76 -47t-21.5 -90q0 -31 -21.5 -52.5t-52.5 -21.5t-52.5 21.5t-21.5 52.5q0 154 97.5 226.5t300.5 72.5h77q221 0 316 -160q90 160 307 158h123q195 0 288 -103.5t93 -318.5 q0 -35 -19.5 -54.5t-56.5 -19.5h-662v-119q0 -96 21.5 -148t72 -74.5t138.5 -22.5h125q92 0 142 15t70.5 50t20.5 96q0 31 21.5 52.5t52.5 21.5t52.5 -21.5t21.5 -52.5q0 -160 -93.5 -234.5t-287.5 -74.5h-125q-230 0 -320 178q-121 -174 -391 -174h-73q-168 0 -248 80 t-80 248zM311 299q0 -106 37 -143t144 -37h73q172 0 252 57t80 176v127h-405q-106 0 -143.5 -36.5t-37.5 -143.5zM1047 627h583q-10 111 -62 155.5t-167 44.5h-123q-123 2 -174 -42t-57 -158z" />
<glyph unicode="&#xe7;" horiz-adv-x="1187" d="M164 389v236q0 201 95 295t294 92h168q152 0 236.5 -51.5t105.5 -157.5q6 -37 -14.5 -57.5t-59.5 -20.5q-31 0 -47 16.5t-29 51.5q-14 39 -58 55t-134 16h-168q-94 2 -145.5 -20.5t-74 -73.5t-22.5 -145v-236q0 -94 22.5 -145t74 -74t145.5 -23h168q90 0 134 16.5 t58 55.5q12 35 28.5 51.5t49.5 16.5q37 0 57.5 -20.5t14.5 -57.5q-39 -193 -293 -207q8 -16 43 -39q43 -29 71.5 -64.5t28.5 -97.5q0 -231 -231 -231q-94 0 -142 48t-48 142q0 63 63 64q63 0 63 -64q0 -41 12.5 -52t51.5 -11q63 0 83.5 20.5t20.5 83.5q0 16 -8 26.5 t-37 31.5q-41 29 -67.5 58.5t-34.5 82.5h-86q-199 0 -294 95t-95 294z" />
<glyph unicode="&#xe8;" d="M164 387v236q0 201 95 296t294 93h168q201 0 295 -94.5t94 -294.5v-103q0 -35 -19.5 -54.5t-54.5 -19.5h-725v-59q0 -92 22.5 -143t74 -74t145.5 -23h168q115 0 168 25t67 86q8 35 25.5 52.5t52.5 17.5q37 0 56.5 -19.5t13.5 -56.5q-20 -129 -114.5 -190.5t-268.5 -61.5 h-168q-199 0 -294 94t-95 293zM311 594h652v29q0 94 -22.5 145t-74 73.5t-145.5 22.5h-168q-94 2 -145.5 -20.5t-74 -74.5t-22.5 -146v-29zM453 1356q0 27 26 47q20 18 45 18q27 0 47 -26l160 -191q18 -20 19 -45q0 -27 -27 -47q-22 -18 -45 -18q-27 0 -47 26l-160 191 q-18 23 -18 45z" />
<glyph unicode="&#xe9;" d="M164 387v236q0 201 95 296t294 93h168q201 0 295 -94.5t94 -294.5v-103q0 -35 -19.5 -54.5t-54.5 -19.5h-725v-59q0 -92 22.5 -143t74 -74t145.5 -23h168q115 0 168 25t67 86q8 35 25.5 52.5t52.5 17.5q37 0 56.5 -19.5t13.5 -56.5q-20 -129 -114.5 -190.5t-268.5 -61.5 h-168q-199 0 -294 94t-95 293zM311 594h652v29q0 94 -22.5 145t-74 73.5t-145.5 22.5h-168q-94 2 -145.5 -20.5t-74 -74.5t-22.5 -146v-29zM568 1186q0 25 18 45l160 190q20 27 47 27q23 0 45 -18q27 -20 27 -48q0 -23 -19 -45l-160 -190q-20 -27 -47 -27q-25 0 -45 19 q-26 20 -26 47z" />
<glyph unicode="&#xea;" d="M164 387v236q0 201 95 296t294 93h168q201 0 295 -94.5t94 -294.5v-103q0 -35 -19.5 -54.5t-54.5 -19.5h-725v-59q0 -92 22.5 -143t74 -74t145.5 -23h168q115 0 168 25t67 86q8 35 25.5 52.5t52.5 17.5q37 0 56.5 -19.5t13.5 -56.5q-20 -129 -114.5 -190.5t-268.5 -61.5 h-168q-199 0 -294 94t-95 293zM311 594h652v29q0 94 -22.5 145t-74 73.5t-145.5 22.5h-168q-94 2 -145.5 -20.5t-74 -74.5t-22.5 -146v-29zM388 1186q0 23 16 43l153 168q33 35 78 35h21q45 0 78 -35l153 -168q16 -20 17 -43q0 -27 -18.5 -45.5t-45.5 -18.5q-29 0 -47 21 l-137 162h-21l-137 -162q-20 -20 -47 -21q-27 0 -45 18.5t-18 45.5z" />
<glyph unicode="&#xeb;" d="M164 387v236q0 201 95 296t294 93h168q201 0 295 -94.5t94 -294.5v-103q0 -35 -19.5 -54.5t-54.5 -19.5h-725v-59q0 -92 22.5 -143t74 -74t145.5 -23h168q115 0 168 25t67 86q8 35 25.5 52.5t52.5 17.5q37 0 56.5 -19.5t13.5 -56.5q-20 -129 -114.5 -190.5t-268.5 -61.5 h-168q-199 0 -294 94t-95 293zM311 594h652v29q0 94 -22.5 145t-74 73.5t-145.5 22.5h-168q-94 2 -145.5 -20.5t-74 -74.5t-22.5 -146v-29zM385 1245v47q0 72 74 72h45q70 0 69 -72v-47q0 -35 -18.5 -54.5t-50.5 -19.5h-45q-35 0 -54.5 19.5t-19.5 54.5zM713 1245v47 q0 72 74 72h45q70 0 69 -72v-47q0 -35 -18.5 -54.5t-50.5 -19.5h-45q-35 0 -54.5 19.5t-19.5 54.5z" />
<glyph unicode="&#xec;" horiz-adv-x="557" d="M86 1356q0 27 26 47q20 18 45 18q27 0 47 -26l160 -191q18 -20 19 -45q0 -27 -27 -47q-22 -18 -45 -18q-27 0 -47 26l-160 191q-18 23 -18 45zM205 74v864q0 35 19.5 54.5t54.5 19.5t54 -19.5t19 -54.5v-864q0 -35 -19.5 -54.5t-53.5 -19.5q-35 0 -54.5 19.5t-19.5 54.5z " />
<glyph unicode="&#xed;" horiz-adv-x="557" d="M201 1186q0 25 18 45l160 190q20 27 47 27q23 0 45 -18q27 -20 27 -48q0 -23 -19 -45l-160 -190q-20 -27 -47 -27q-25 0 -45 19q-26 20 -26 47zM205 74v864q0 35 19.5 54.5t54.5 19.5t54 -19.5t19 -54.5v-864q0 -35 -19.5 -54.5t-53.5 -19.5q-35 0 -54.5 19.5t-19.5 54.5 z" />
<glyph unicode="&#xee;" horiz-adv-x="557" d="M21 1186q0 23 16 43l153 168q33 35 78 35h21q45 0 78 -35l153 -168q16 -20 17 -43q0 -27 -18.5 -45.5t-45.5 -18.5q-29 0 -47 21l-137 162h-21l-137 -162q-20 -20 -47 -21q-27 0 -45 18.5t-18 45.5zM205 74v864q0 35 19.5 54.5t54.5 19.5t54 -19.5t19 -54.5v-864 q0 -35 -19.5 -54.5t-53.5 -19.5q-35 0 -54.5 19.5t-19.5 54.5z" />
<glyph unicode="&#xef;" horiz-adv-x="557" d="M19 1245v47q0 72 74 72h45q70 0 69 -72v-47q0 -35 -18.5 -54.5t-50.5 -19.5h-45q-35 0 -54.5 19.5t-19.5 54.5zM205 74v864q0 35 19.5 54.5t54.5 19.5t54 -19.5t19 -54.5v-864q0 -35 -19.5 -54.5t-53.5 -19.5q-35 0 -54.5 19.5t-19.5 54.5zM346 1245v47q0 72 74 72h45 q70 0 69 -72v-47q0 -35 -18.5 -54.5t-50.5 -19.5h-45q-35 0 -54.5 19.5t-19.5 54.5z" />
<glyph unicode="&#xf0;" d="M164 387v236q0 201 94 295t295 94h168q137 0 227 -92q-16 156 -54 222t-108 83l-159 41l-125 -117q-23 -23 -45 -23q-25 0 -47 25q-20 20 -21 45q0 27 23 47l63 60l-166 43q-57 16 -57 63q0 6 4 27q16 57 63 57q6 0 27 -4l258 -66l113 107q23 23 45 22q25 0 47 -24 q20 -20 20 -45q0 -27 -22 -47l-53 -50l69 -18q148 -35 214.5 -196.5t72.5 -493.5v-289q0 -199 -94 -294t-295 -95h-168q-199 0 -294 94t-95 293zM311 387q0 -92 22.5 -143t74 -74t145.5 -23h168q94 0 145.5 23t74 74t22.5 145v234q0 94 -22.5 145t-74 73.5t-145.5 22.5h-168 q-94 0 -145.5 -21.5t-74 -73.5t-22.5 -146v-236z" />
<glyph unicode="&#xf1;" horiz-adv-x="1314" d="M205 74v864q0 35 19.5 54.5t54.5 19.5t54 -19.5t19 -54.5v-57q106 131 332 131h57q201 0 295 -94.5t94 -294.5v-549q0 -35 -19 -54.5t-54 -19.5t-54.5 19.5t-19.5 54.5v549q0 94 -22.5 145t-73.5 73.5t-146 22.5h-57q-152 0 -242 -42t-90 -124v-624q0 -35 -19.5 -54.5 t-53.5 -19.5q-35 0 -54.5 19.5t-19.5 54.5zM399 1206q0 14 7 29q33 84 81 122t119 38q57 0 94 -22.5t76 -61.5q27 -27 41.5 -35t34.5 -8q25 0 40 14t30 49q18 49 55 49q14 0 20 -2q47 -10 48 -51q0 -16 -4 -24q-29 -80 -74 -119t-115 -39q-55 0 -91 21.5t-73 58.5 q-27 29 -43 38t-39 9q-29 0 -48 -15.5t-36 -56.5q-16 -47 -53 -47q-8 0 -24 4q-45 12 -46 49z" />
<glyph unicode="&#xf2;" d="M164 387v236q0 201 94 295t295 94h168q201 0 295 -94.5t94 -294.5v-234q0 -199 -94 -294t-295 -95h-168q-199 0 -294 94t-95 293zM311 387q0 -92 22.5 -143t74 -74t145.5 -23h168q94 0 145.5 23t74 74t22.5 145v234q0 94 -22.5 145t-74 73.5t-145.5 22.5h-168 q-94 0 -145.5 -21.5t-74 -73.5t-22.5 -146v-236zM447 1356q0 27 26 47q20 18 45 18q27 0 47 -26l160 -191q18 -20 19 -45q0 -27 -27 -47q-22 -18 -45 -18q-27 0 -47 26l-160 191q-18 23 -18 45z" />
<glyph unicode="&#xf3;" d="M164 387v236q0 201 94 295t295 94h168q201 0 295 -94.5t94 -294.5v-234q0 -199 -94 -294t-295 -95h-168q-199 0 -294 94t-95 293zM311 387q0 -92 22.5 -143t74 -74t145.5 -23h168q94 0 145.5 23t74 74t22.5 145v234q0 94 -22.5 145t-74 73.5t-145.5 22.5h-168 q-94 0 -145.5 -21.5t-74 -73.5t-22.5 -146v-236zM562 1186q0 25 18 45l160 190q20 27 47 27q23 0 45 -18q27 -20 27 -48q0 -23 -19 -45l-160 -190q-20 -27 -47 -27q-25 0 -45 19q-26 20 -26 47z" />
<glyph unicode="&#xf4;" d="M164 387v236q0 201 94 295t295 94h168q201 0 295 -94.5t94 -294.5v-234q0 -199 -94 -294t-295 -95h-168q-199 0 -294 94t-95 293zM311 387q0 -92 22.5 -143t74 -74t145.5 -23h168q94 0 145.5 23t74 74t22.5 145v234q0 94 -22.5 145t-74 73.5t-145.5 22.5h-168 q-94 0 -145.5 -21.5t-74 -73.5t-22.5 -146v-236zM381 1186q0 23 16 43l153 168q33 35 78 35h21q45 0 78 -35l153 -168q16 -20 17 -43q0 -27 -18.5 -45.5t-45.5 -18.5q-29 0 -47 21l-137 162h-21l-137 -162q-20 -20 -47 -21q-27 0 -45 18.5t-18 45.5z" />
<glyph unicode="&#xf5;" d="M164 387v236q0 201 94 295t295 94h168q201 0 295 -94.5t94 -294.5v-234q0 -199 -94 -294t-295 -95h-168q-199 0 -294 94t-95 293zM311 387q0 -92 22.5 -143t74 -74t145.5 -23h168q94 0 145.5 23t74 74t22.5 145v234q0 94 -22.5 145t-74 73.5t-145.5 22.5h-168 q-94 0 -145.5 -21.5t-74 -73.5t-22.5 -146v-236zM325 1206q0 14 7 29q33 84 81 122t119 38q57 0 94 -22.5t76 -61.5q27 -27 41.5 -35t34.5 -8q25 0 40 14t30 49q18 49 55 49q14 0 20 -2q47 -10 48 -51q0 -16 -4 -24q-29 -80 -74 -119t-115 -39q-55 0 -91 21.5t-73 58.5 q-27 29 -43 38t-39 9q-29 0 -48 -15.5t-36 -56.5q-16 -47 -53 -47q-8 0 -24 4q-45 12 -46 49z" />
<glyph unicode="&#xf6;" d="M164 387v236q0 201 94 295t295 94h168q201 0 295 -94.5t94 -294.5v-234q0 -199 -94 -294t-295 -95h-168q-199 0 -294 94t-95 293zM311 387q0 -92 22.5 -143t74 -74t145.5 -23h168q94 0 145.5 23t74 74t22.5 145v234q0 94 -22.5 145t-74 73.5t-145.5 22.5h-168 q-94 0 -145.5 -21.5t-74 -73.5t-22.5 -146v-236zM379 1245v47q0 72 74 72h45q70 0 69 -72v-47q0 -35 -18.5 -54.5t-50.5 -19.5h-45q-35 0 -54.5 19.5t-19.5 54.5zM707 1245v47q0 72 74 72h45q70 0 69 -72v-47q0 -35 -18.5 -54.5t-50.5 -19.5h-45q-35 0 -54.5 19.5 t-19.5 54.5z" />
<glyph unicode="&#xf7;" horiz-adv-x="1210" d="M164 752q0 63 63 63h756q63 0 64 -63q0 -63 -64 -63h-756q-63 0 -63 63zM508 389v47q0 72 74 72h45q70 0 69 -72v-47q0 -35 -18.5 -54.5t-50.5 -19.5h-45q-35 0 -54.5 19.5t-19.5 54.5zM508 1065v47q0 72 74 72h45q70 0 69 -72v-47q0 -35 -18.5 -54.5t-50.5 -19.5h-45 q-35 0 -54.5 19.5t-19.5 54.5z" />
<glyph unicode="&#xf8;" d="M164 387v236q0 201 94 295t295 94h168q76 0 145 -17l47 78q20 33 52 33q18 0 39 -12q33 -20 32 -50q0 -18 -12 -40l-37 -62q123 -92 123 -319v-234q0 -199 -94 -294t-295 -95h-168q-78 0 -147 16l-74 -120q-23 -35 -51 -35q-16 0 -39 12q-35 23 -35 51q0 16 12 39l68 107 q-123 92 -123 317zM311 387q0 -74 14.5 -122t45.5 -72l417 667q-20 4 -67 4h-168q-94 0 -145.5 -21.5t-74 -73.5t-22.5 -146v-236zM485 152q20 -4 68 -5h168q94 0 145.5 23t74 74t22.5 145v234q0 76 -14.5 123t-45.5 73z" />
<glyph unicode="&#xf9;" horiz-adv-x="1314" d="M184 389v549q0 35 19.5 54.5t54.5 19.5t54.5 -19.5t19.5 -54.5v-549q0 -94 22.5 -145t73.5 -74t145 -23h58q152 0 242 42t90 124v625q0 35 19 54.5t54 19.5t54.5 -19.5t19.5 -54.5v-864q0 -35 -19.5 -54.5t-54.5 -19.5t-54 19.5t-19 54.5v57q-106 -131 -332 -131h-58 q-199 0 -294 95t-95 294zM457 1356q0 27 26 47q20 18 45 18q27 0 47 -26l160 -191q18 -20 19 -45q0 -27 -27 -47q-22 -18 -45 -18q-27 0 -47 26l-160 191q-18 23 -18 45z" />
<glyph unicode="&#xfa;" horiz-adv-x="1314" d="M184 389v549q0 35 19.5 54.5t54.5 19.5t54.5 -19.5t19.5 -54.5v-549q0 -94 22.5 -145t73.5 -74t145 -23h58q152 0 242 42t90 124v625q0 35 19 54.5t54 19.5t54.5 -19.5t19.5 -54.5v-864q0 -35 -19.5 -54.5t-54.5 -19.5t-54 19.5t-19 54.5v57q-106 -131 -332 -131h-58 q-199 0 -294 95t-95 294zM572 1186q0 25 18 45l160 190q20 27 47 27q23 0 45 -18q27 -20 27 -48q0 -23 -19 -45l-160 -190q-20 -27 -47 -27q-25 0 -45 19q-26 20 -26 47z" />
<glyph unicode="&#xfb;" horiz-adv-x="1314" d="M184 389v549q0 35 19.5 54.5t54.5 19.5t54.5 -19.5t19.5 -54.5v-549q0 -94 22.5 -145t73.5 -74t145 -23h58q152 0 242 42t90 124v625q0 35 19 54.5t54 19.5t54.5 -19.5t19.5 -54.5v-864q0 -35 -19.5 -54.5t-54.5 -19.5t-54 19.5t-19 54.5v57q-106 -131 -332 -131h-58 q-199 0 -294 95t-95 294zM392 1186q0 23 16 43l153 168q33 35 78 35h21q45 0 78 -35l153 -168q16 -20 17 -43q0 -27 -18.5 -45.5t-45.5 -18.5q-29 0 -47 21l-137 162h-21l-137 -162q-20 -20 -47 -21q-27 0 -45 18.5t-18 45.5z" />
<glyph unicode="&#xfc;" horiz-adv-x="1314" d="M184 389v549q0 35 19.5 54.5t54.5 19.5t54.5 -19.5t19.5 -54.5v-549q0 -94 22.5 -145t73.5 -74t145 -23h58q152 0 242 42t90 124v625q0 35 19 54.5t54 19.5t54.5 -19.5t19.5 -54.5v-864q0 -35 -19.5 -54.5t-54.5 -19.5t-54 19.5t-19 54.5v57q-106 -131 -332 -131h-58 q-199 0 -294 95t-95 294zM389 1245v47q0 72 74 72h45q70 0 69 -72v-47q0 -35 -18.5 -54.5t-50.5 -19.5h-45q-35 0 -54.5 19.5t-19.5 54.5zM717 1245v47q0 72 74 72h45q70 0 69 -72v-47q0 -35 -18.5 -54.5t-50.5 -19.5h-45q-35 0 -54.5 19.5t-19.5 54.5z" />
<glyph unicode="&#xfd;" horiz-adv-x="1335" d="M184 -125q0 74 74 74t74 -74q0 -82 26.5 -109.5t108.5 -27.5h381q82 0 108.5 27.5t26.5 109.5v268q-57 -82 -137 -112.5t-195 -30.5h-84q-197 0 -290 92t-93 289v557q0 74 74 74t74 -74v-557q0 -92 21.5 -142.5t71.5 -71t142 -20.5h84q172 0 252 57.5t80 176.5v557 q0 74 74 74t73 -74v-1063q0 -143 -69.5 -214t-212.5 -71h-381q-143 0 -213 71t-70 214zM582 1186q0 25 18 45l160 190q20 27 47 27q23 0 45 -18q27 -20 27 -48q0 -23 -19 -45l-160 -190q-20 -27 -47 -27q-25 0 -45 19q-26 20 -26 47z" />
<glyph unicode="&#xfe;" horiz-adv-x="1314" d="M205 -336v1643q0 41 17.5 57t56.5 16q41 0 57 -16t16 -57v-443q121 143 332 144h78q201 0 295 -94.5t94 -295.5v-227q0 -199 -94 -294t-295 -95h-410v-338q0 -41 -16.5 -57.5t-56.5 -16.5q-39 0 -56.5 16.5t-17.5 57.5zM352 150h410q94 0 145 22.5t74 73.5t23 145v227 q0 94 -23 145.5t-74 74t-145 22.5h-78q-172 0 -252 -57.5t-80 -175.5v-477z" />
<glyph unicode="&#xff;" horiz-adv-x="1335" d="M184 -125q0 74 74 74t74 -74q0 -82 26.5 -109.5t108.5 -27.5h381q82 0 108.5 27.5t26.5 109.5v268q-57 -82 -137 -112.5t-195 -30.5h-84q-197 0 -290 92t-93 289v557q0 74 74 74t74 -74v-557q0 -92 21.5 -142.5t71.5 -71t142 -20.5h84q172 0 252 57.5t80 176.5v557 q0 74 74 74t73 -74v-1063q0 -143 -69.5 -214t-212.5 -71h-381q-143 0 -213 71t-70 214zM400 1245v47q0 72 74 72h45q70 0 69 -72v-47q0 -35 -18.5 -54.5t-50.5 -19.5h-45q-35 0 -54.5 19.5t-19.5 54.5zM727 1245v47q0 72 74 72h45q70 0 69 -72v-47q0 -35 -18.5 -54.5 t-50.5 -19.5h-45q-35 0 -54.5 19.5t-19.5 54.5z" />
<glyph unicode="&#x152;" horiz-adv-x="1775" d="M164 446v472q0 231 108.5 337.5t337.5 106.5h989q35 0 54.5 -19.5t19.5 -54.5t-19.5 -54.5t-54.5 -19.5h-591v-452h350q35 0 54.5 -19.5t19.5 -54.5t-19.5 -54.5t-54.5 -19.5h-350v-467h591q35 0 54.5 -19t19.5 -54t-19.5 -54.5t-54.5 -19.5h-989q-229 0 -337.5 108.5 t-108.5 337.5zM311 446q0 -114 28 -178.5t92.5 -92.5t178.5 -28h250v1067h-250q-115 0 -179 -27.5t-92 -91t-28 -177.5v-472z" />
<glyph unicode="&#x153;" horiz-adv-x="1949" d="M164 358v230q0 201 95 296t294 93h106q117 0 193 -36t121 -122q45 88 119.5 124t189.5 34h123q197 0 289 -107.5t92 -332.5q0 -35 -19.5 -54.5t-56.5 -19.5h-661v-98q0 -96 21.5 -148.5t71.5 -75t138 -22.5h125q92 0 142 15.5t70.5 50t20.5 96.5q0 31 21.5 52t52.5 21 t52.5 -21.5t21.5 -51.5q0 -160 -93.5 -235t-287.5 -75h-125q-113 0 -186.5 36t-118.5 124q-45 -88 -122 -124t-194 -36h-106q-199 0 -294 94.5t-95 292.5zM311 358q0 -92 22.5 -143t74 -73.5t145.5 -22.5h106q94 0 145.5 22.5t74 73.5t22.5 145v228q0 94 -22.5 145 t-73.5 73.5t-146 22.5h-106q-94 2 -145.5 -20.5t-74 -74.5t-22.5 -146v-230zM1049 610h587q-10 123 -62 171t-169 48h-123q-129 2 -180 -45t-53 -174z" />
<glyph unicode="&#x178;" horiz-adv-x="1202" d="M41 1288q0 35 37 60q23 14 45 14q37 0 57 -37l414 -661l428 661q20 37 55 37q23 0 45 -16q39 -23 39 -58q0 -20 -16 -43l-477 -739v-432q0 -35 -19.5 -54.5t-54.5 -19.5t-54.5 19.5t-19.5 54.5v432l-465 739q-14 23 -14 43zM342 1596v47q0 72 74 72h45q70 0 69 -72v-47 q0 -35 -18.5 -54.5t-50.5 -19.5h-45q-35 0 -54.5 19.5t-19.5 54.5zM670 1596v47q0 72 74 72h45q70 0 69 -72v-47q0 -35 -18.5 -54.5t-50.5 -19.5h-45q-35 0 -54.5 19.5t-19.5 54.5z" />
<glyph unicode="&#x2c6;" horiz-adv-x="720" d="M102 1145q0 23 17 43l153 168q33 35 78 35h21q45 0 78 -35l153 -168q16 -20 16 -43q0 -27 -18 -45.5t-45 -18.5q-29 0 -47 21l-137 162h-21l-137 -162q-20 -20 -47 -21q-27 0 -45.5 18.5t-18.5 45.5z" />
<glyph unicode="&#x2dc;" horiz-adv-x="849" d="M102 1145q0 14 7 29q33 84 81 121.5t119 37.5q57 0 94 -22.5t76 -61.5q27 -27 41.5 -35t34.5 -8q25 0 40 14.5t30 49.5q18 49 55 49q14 0 20 -2q47 -10 48 -51q0 -16 -5 -25q-29 -80 -73.5 -119t-114.5 -39q-55 0 -91 21.5t-73 58.5q-27 29 -43 38t-39 9q-29 0 -48 -15 t-36 -56q-16 -47 -53 -47q-8 0 -25 4q-45 12 -45 49z" />
<glyph unicode="&#x2000;" horiz-adv-x="899" />
<glyph unicode="&#x2001;" horiz-adv-x="1798" />
<glyph unicode="&#x2002;" horiz-adv-x="899" />
<glyph unicode="&#x2003;" horiz-adv-x="1798" />
<glyph unicode="&#x2004;" horiz-adv-x="599" />
<glyph unicode="&#x2005;" horiz-adv-x="449" />
<glyph unicode="&#x2006;" horiz-adv-x="299" />
<glyph unicode="&#x2007;" horiz-adv-x="299" />
<glyph unicode="&#x2008;" horiz-adv-x="224" />
<glyph unicode="&#x2009;" horiz-adv-x="359" />
<glyph unicode="&#x200a;" horiz-adv-x="99" />
<glyph unicode="&#x2010;" horiz-adv-x="1019" d="M164 553q0 27 18.5 45t44.5 18h566q27 0 45 -18t18 -45t-18.5 -45.5t-44.5 -18.5h-566q-26 0 -44.5 18.5t-18.5 45.5z" />
<glyph unicode="&#x2011;" horiz-adv-x="1019" d="M164 553q0 27 18.5 45t44.5 18h566q27 0 45 -18t18 -45t-18.5 -45.5t-44.5 -18.5h-566q-26 0 -44.5 18.5t-18.5 45.5z" />
<glyph unicode="&#x2012;" horiz-adv-x="1019" d="M164 553q0 27 18.5 45t44.5 18h566q27 0 45 -18t18 -45t-18.5 -45.5t-44.5 -18.5h-566q-26 0 -44.5 18.5t-18.5 45.5z" />
<glyph unicode="&#x2013;" horiz-adv-x="1210" d="M164 555q0 63 63 63h756q63 0 64 -63q0 -63 -64 -63h-756q-63 0 -63 63z" />
<glyph unicode="&#x2014;" horiz-adv-x="1718" d="M164 551q0 27 18.5 45t44.5 18h1264q27 0 45 -18t18 -45t-18 -45.5t-45 -18.5h-1264q-26 0 -44.5 18.5t-18.5 45.5z" />
<glyph unicode="&#x2018;" horiz-adv-x="518" d="M133 1073v47q0 14 4 31l2 4v2l101 246q8 18 23.5 28.5t35.5 10.5q27 0 46.5 -16.5t19.5 -41.5q0 -14 -7 -30l-69 -170q33 -14 33 -64v-47q0 -72 -74 -72h-45q-70 0 -70 72z" />
<glyph unicode="&#x2019;" horiz-adv-x="477" d="M82 1051q0 16 6 30l70 170q-33 14 -33 64v47q0 72 74 72h45q70 0 69 -72v-47q0 -14 -4 -31l-2 -4v-2l-100 -246q-8 -18 -23.5 -28.5t-36.5 -10.5q-27 0 -46 16.5t-19 41.5z" />
<glyph unicode="&#x201a;" horiz-adv-x="477" d="M82 -190q0 14 6 30l70 170q-33 14 -33 64v47q0 72 74 72h45q70 0 69 -72v-47q0 -14 -4 -31l-2 -4v-2l-100 -246q-8 -18 -23.5 -28.5t-36.5 -10.5q-27 0 -46 16.5t-19 41.5z" />
<glyph unicode="&#x201c;" horiz-adv-x="804" d="M133 1073v47q0 14 4 31l2 4v2l101 246q8 18 23.5 28.5t35.5 10.5q27 0 46.5 -16.5t19.5 -41.5q0 -14 -7 -30l-69 -170q33 -14 33 -64v-47q0 -72 -74 -72h-45q-70 0 -70 72zM420 1073v47q0 14 4 31l2 4v2l101 246q8 18 23.5 28.5t35.5 10.5q27 0 46.5 -16.5t19.5 -41.5 q0 -14 -7 -30l-69 -170q33 -14 33 -64v-47q0 -72 -74 -72h-45q-70 0 -70 72z" />
<glyph unicode="&#x201d;" horiz-adv-x="784" d="M82 1051q0 14 6 30l70 170q-33 14 -33 64v47q0 72 74 72h45q70 0 69 -72v-47q0 -14 -4 -31l-2 -4v-2l-100 -246q-8 -18 -23.5 -28.5t-36.5 -10.5q-27 0 -46 16.5t-19 41.5zM389 1051q0 14 6 30l70 170q-33 14 -33 64v47q0 72 74 72h45q70 0 69 -72v-47q0 -14 -4 -31 l-2 -4v-2l-100 -246q-8 -18 -23.5 -28.5t-36.5 -10.5q-27 0 -46 16.5t-19 41.5z" />
<glyph unicode="&#x201e;" horiz-adv-x="784" d="M82 -190q0 14 6 30l70 170q-33 14 -33 64v47q0 72 74 72h45q70 0 69 -72v-47q0 -14 -4 -31l-2 -4v-2l-100 -246q-8 -18 -23.5 -28.5t-36.5 -10.5q-27 0 -46 16.5t-19 41.5zM389 -190q0 14 6 30l70 170q-33 14 -33 64v47q0 72 74 72h45q70 0 69 -72v-47q0 -14 -4 -31 l-2 -4v-2l-100 -246q-8 -18 -23.5 -28.5t-36.5 -10.5q-27 0 -46 16.5t-19 41.5z" />
<glyph unicode="&#x2022;" horiz-adv-x="704" d="M164 520v94q0 70 38 107t109 37h90q68 0 104 -37t36 -107v-94q0 -72 -36 -109.5t-104 -37.5h-90q-69 0 -108 39t-39 108z" />
<glyph unicode="&#x2026;" horiz-adv-x="1392" d="M164 74v47q0 72 74 72h45q70 0 69 -72v-47q0 -35 -18.5 -54.5t-50.5 -19.5h-45q-35 0 -54.5 19.5t-19.5 54.5zM602 74v47q0 72 74 72h45q70 0 69 -72v-47q0 -35 -18.5 -54.5t-50.5 -19.5h-45q-35 0 -54.5 19.5t-19.5 54.5zM1041 74v47q0 72 74 72h45q70 0 69 -72v-47 q0 -35 -18.5 -54.5t-50.5 -19.5h-45q-35 0 -54.5 19.5t-19.5 54.5z" />
<glyph unicode="&#x202f;" horiz-adv-x="359" />
<glyph unicode="&#x2039;" horiz-adv-x="880" d="M184 602q0 23 27 45l381 316q18 14 41 14q27 0 45 -18.5t18 -45.5q0 -29 -24 -49l-318 -262l318 -262q25 -20 24 -49q0 -27 -18.5 -45.5t-44.5 -18.5q-23 1 -41 15l-381 315q-27 23 -27 45z" />
<glyph unicode="&#x203a;" horiz-adv-x="880" d="M184 291q0 29 25 49l317 262l-317 262q-25 20 -25 49q0 27 18.5 45.5t45.5 18.5q23 0 41 -14l381 -316q27 -20 26 -45q0 -25 -26 -45l-381 -315q-18 -14 -41 -15q-27 0 -45.5 18.5t-18.5 45.5z" />
<glyph unicode="&#x205f;" horiz-adv-x="449" />
<glyph unicode="&#x20ac;" horiz-adv-x="1333" d="M82 557q0 63 63 64h111v94h-111q-63 0 -63 63t63 64h111v71q0 231 107.5 339t336.5 108h248q88 0 145.5 -30t120.5 -105q16 -20 17 -45q0 -31 -21.5 -52.5t-52.5 -21.5q-33 0 -57 29q-43 49 -69.5 63t-82.5 14h-248q-115 0 -178 -27.5t-91 -92t-28 -179.5v-71h568 q63 0 63 -64q0 -63 -63 -63h-568v-94h455q63 0 64 -64q0 -63 -64 -63h-455v-45q0 -115 28 -179.5t92.5 -92t178.5 -27.5h246q80 0 119 14t78 67q18 25 53 25q31 0 52.5 -21.5t21.5 -52.5q0 -29 -21 -49q-74 -74 -138 -102.5t-165 -28.5h-246q-229 0 -337.5 108.5 t-108.5 338.5v45h-111q-63 0 -63 63z" />
<glyph unicode="&#x2122;" horiz-adv-x="1548" d="M102 1276q0 59 60 59h450q59 0 60 -59q0 -59 -60 -59h-166v-521q0 -59 -59 -59t-59 59v521h-166q-59 0 -60 59zM795 696v580q0 59 59 59q37 0 51 -26l217 -326l213 326q14 27 49 26q61 0 62 -59v-580q0 -59 -60 -59q-59 0 -59 59v383l-153 -233q-14 -27 -54 -27 q-35 0 -49 27l-158 237v-387q0 -59 -59 -59t-59 59z" />
<glyph unicode="&#x25fc;" horiz-adv-x="1013" d="M0 0v1014h1014v-1014h-1014z" />
<glyph unicode="&#xfb03;" horiz-adv-x="1861" d="M82 938q0 35 19.5 54.5t54.5 19.5h80v39q0 197 93 290t289 93q66 0 66 -74q0 -35 -17.5 -54.5t-48.5 -19.5q-133 0 -184 -50t-51 -185v-39h489v39q0 197 93.5 290t289.5 93h355q41 0 62.5 -21.5t21.5 -62.5v-58q0 -41 -22.5 -64.5t-61.5 -23.5h-54q-29 0 -51 13l-250 69 q-133 0 -184 -50t-51 -185v-39h567q35 0 54.5 -19.5t19.5 -54.5q0 -14 -2 -20v-844q0 -35 -19.5 -54.5t-54.5 -19.5t-54.5 19.5t-19.5 54.5v790h-491v-790q0 -35 -19.5 -54.5t-54.5 -19.5t-54.5 19.5t-19.5 54.5v790h-489v-790q0 -35 -19.5 -54.5t-54.5 -19.5t-54 19.5 t-19 54.5v790h-80q-35 0 -54.5 19.5t-19.5 54.5z" />
<glyph unicode="&#xfb04;" horiz-adv-x="1947" d="M82 938q0 35 19.5 54.5t54.5 19.5h80v39q0 197 93 290t289 93q66 0 66 -74q0 -35 -17.5 -54.5t-48.5 -19.5q-133 0 -184 -50t-51 -185v-39h471v39q0 197 93 290t290 93h330q35 0 54 -19.5t19 -54.5v-1061q0 -90 31 -121t121 -31q39 0 56.5 -17t17.5 -56 q0 -35 -19.5 -54.5t-54.5 -19.5q-152 0 -225.5 73.5t-73.5 225.5v987h-256q-92 0 -142.5 -21.5t-72 -71.5t-21.5 -142v-39h226q35 0 54 -19.5t19 -54.5t-19 -54.5t-54 -19.5h-226v-790q0 -35 -19 -54.5t-54 -19.5t-54.5 19.5t-19.5 54.5v790h-471v-790q0 -35 -19.5 -54.5 t-54.5 -19.5t-54 19.5t-19 54.5v790h-80q-35 0 -54.5 19.5t-19.5 54.5z" />
</font>
</defs>
</svg>
